<?xml version="1.0" encoding="UTF-8"?>
<svg xmlns="http://www.w3.org/2000/svg" xmlns:xlink="http://www.w3.org/1999/xlink" width="37.5pt" height="37.5pt" viewBox="0 0 37.5 37.5" version="1.1">
<g id="surface20808">
<path style=" stroke:none;fill-rule:nonzero;fill:rgb(100%,100%,100%);fill-opacity:1;" d="M 5.714844 3.535156 L 3.535156 5.714844 L 7.8125 9.992188 C 6.984375 10.671875 6.242188 11.394531 5.578125 12.117188 C 2.757812 15.261719 1.542969 18.5 1.542969 18.5 C 1.542969 18.5 6.167969 30.832031 18.5 30.832031 C 20.351562 30.832031 22.03125 30.554688 23.539062 30.078125 C 24.648438 29.738281 25.667969 29.292969 26.589844 28.769531 L 31.285156 33.464844 L 33.464844 31.285156 Z M 18.5 6.167969 C 16.648438 6.167969 14.96875 6.445312 13.460938 6.921875 L 16.019531 9.480469 C 16.789062 9.328125 17.621094 9.25 18.5 9.25 C 26.640625 9.25 30.742188 15.832031 32.082031 18.5 C 31.574219 19.515625 30.632812 21.121094 29.230469 22.695312 L 31.421875 24.882812 C 34.242188 21.738281 35.457031 18.5 35.457031 18.5 C 35.457031 18.5 30.832031 6.167969 18.5 6.167969 Z M 10.003906 12.183594 L 13.195312 15.375 C 12.640625 16.296875 12.332031 17.359375 12.332031 18.5 C 12.332031 18.625 12.332031 18.761719 12.347656 18.886719 C 12.535156 21.984375 15.015625 24.464844 18.113281 24.652344 C 18.238281 24.667969 18.375 24.667969 18.5 24.667969 C 19.640625 24.667969 20.703125 24.359375 21.625 23.804688 L 24.292969 26.472656 C 23.292969 26.949219 22.183594 27.316406 20.980469 27.519531 C 20.195312 27.671875 19.378906 27.75 18.5 27.75 C 10.359375 27.75 6.257812 21.167969 4.917969 18.5 C 5.425781 17.484375 6.351562 15.878906 7.769531 14.304688 C 8.398438 13.582031 9.15625 12.859375 10.003906 12.183594 Z M 18.886719 12.347656 L 24.652344 18.113281 C 24.464844 15.015625 21.984375 12.535156 18.886719 12.347656 Z M 15.523438 17.703125 L 19.296875 21.476562 C 19.050781 21.550781 18.777344 21.582031 18.5 21.582031 C 16.804688 21.582031 15.417969 20.195312 15.417969 18.5 C 15.417969 18.222656 15.449219 17.949219 15.523438 17.703125 Z M 15.523438 17.703125 "/>
</g>
</svg>
