<?xml version="1.0" encoding="UTF-8"?>
<svg xmlns="http://www.w3.org/2000/svg" xmlns:xlink="http://www.w3.org/1999/xlink" width="37.5pt" height="37.5pt" viewBox="0 0 37.5 37.5" version="1.1">
<g id="surface24786">
<path style=" stroke:none;fill-rule:nonzero;fill:rgb(100%,100%,100%);fill-opacity:1;" d="M 18.5 31.21875 C 11.488281 31.21875 5.78125 25.511719 5.78125 18.5 C 5.78125 11.488281 11.488281 5.78125 18.5 5.78125 C 24.3125 5.78125 29.21875 9.699219 30.734375 15.03125 L 32.375 15.03125 C 33.011719 15.03125 33.53125 15.550781 33.53125 16.1875 C 33.53125 16.824219 33.011719 17.34375 32.375 17.34375 L 23.011719 17.34375 L 25.097656 15.273438 C 25.550781 14.824219 25.550781 14.089844 25.101562 13.636719 C 24.875 13.410156 24.578125 13.296875 24.28125 13.296875 C 23.988281 13.296875 23.691406 13.410156 23.464844 13.632812 L 19.390625 17.679688 C 19.171875 17.894531 19.050781 18.191406 19.050781 18.5 C 19.050781 18.808594 19.171875 19.105469 19.390625 19.320312 L 23.464844 23.367188 C 23.921875 23.816406 24.652344 23.8125 25.101562 23.363281 C 25.550781 22.90625 25.550781 22.175781 25.097656 21.726562 L 23.011719 19.65625 L 31.164062 19.65625 C 30.578125 26.128906 25.121094 31.21875 18.5 31.21875 Z M 18.5 31.21875 "/>
</g>
</svg>
