<?xml version="1.0" encoding="UTF-8"?>
<svg xmlns="http://www.w3.org/2000/svg" xmlns:xlink="http://www.w3.org/1999/xlink" width="37.5pt" height="37.5pt" viewBox="0 0 37.5 37.5" version="1.1">
<defs>
<linearGradient id="linear0" gradientUnits="userSpaceOnUse" x1="7.454" y1="12.078" x2="32.757" y2="37.381001" gradientTransform="matrix(0.770833,0,0,0.770833,0,0)">
<stop offset="0" style="stop-color:rgb(0%,46.666667%,82.352942%);stop-opacity:1;"/>
<stop offset="1" style="stop-color:rgb(4.313726%,34.901962%,63.529414%);stop-opacity:1;"/>
</linearGradient>
<filter id="alpha" filterUnits="objectBoundingBox" x="0%" y="0%" width="100%" height="100%">
  <feColorMatrix type="matrix" in="SourceGraphic" values="0 0 0 0 1 0 0 0 0 1 0 0 0 0 1 0 0 0 1 0"/>
</filter>
<mask id="mask0">
  <g filter="url(#alpha)">
<rect x="0" y="0" width="37.5" height="37.5" style="fill:rgb(0%,0%,0%);fill-opacity:0.05;stroke:none;"/>
  </g>
</mask>
<clipPath id="clip1">
  <rect x="0" y="0" width="37" height="37"/>
</clipPath>
<g id="surface20465" clip-path="url(#clip1)">
<path style=" stroke:none;fill-rule:nonzero;fill:rgb(0%,0%,0%);fill-opacity:1;" d="M 10.792969 26.832031 C 9.941406 26.832031 9.25 26.140625 9.25 25.292969 L 9.25 17.582031 C 9.25 16.734375 9.941406 16.042969 10.792969 16.042969 C 10.792969 13.066406 13.210938 10.644531 16.1875 10.644531 C 19.164062 10.644531 21.582031 13.066406 21.582031 16.042969 C 22.433594 16.042969 23.125 16.734375 23.125 17.582031 L 23.125 25.292969 C 23.125 26.140625 22.433594 26.832031 21.582031 26.832031 Z M 18.5 16.042969 C 18.5 14.765625 17.460938 13.730469 16.1875 13.730469 C 14.914062 13.730469 13.875 14.765625 13.875 16.042969 Z M 18.5 16.042969 "/>
</g>
<mask id="mask1">
  <g filter="url(#alpha)">
<rect x="0" y="0" width="37.5" height="37.5" style="fill:rgb(0%,0%,0%);fill-opacity:0.07;stroke:none;"/>
  </g>
</mask>
<clipPath id="clip2">
  <rect x="0" y="0" width="37" height="37"/>
</clipPath>
<g id="surface20469" clip-path="url(#clip2)">
<path style=" stroke:none;fill-rule:nonzero;fill:rgb(0%,0%,0%);fill-opacity:1;" d="M 10.792969 26.449219 C 10.152344 26.449219 9.636719 25.929688 9.636719 25.292969 L 9.636719 17.582031 C 9.636719 16.945312 10.152344 16.425781 10.792969 16.425781 L 11.175781 16.425781 L 11.175781 16.042969 C 11.175781 13.277344 13.425781 11.03125 16.1875 11.03125 C 18.949219 11.03125 21.199219 13.277344 21.199219 16.042969 L 21.199219 16.425781 L 21.582031 16.425781 C 22.222656 16.425781 22.738281 16.945312 22.738281 17.582031 L 22.738281 25.292969 C 22.738281 25.929688 22.222656 26.449219 21.582031 26.449219 Z M 18.886719 16.425781 L 18.886719 16.042969 C 18.886719 14.554688 17.675781 13.34375 16.1875 13.34375 C 14.699219 13.34375 13.488281 14.554688 13.488281 16.042969 L 13.488281 16.425781 Z M 18.886719 16.425781 "/>
</g>
<linearGradient id="linear1" gradientUnits="userSpaceOnUse" x1="21" y1="22.819" x2="21" y2="15.603" gradientTransform="matrix(0.770833,0,0,0.770833,0,0)">
<stop offset="0" style="stop-color:rgb(57.254905%,63.921571%,69.01961%);stop-opacity:1;"/>
<stop offset="0.099" style="stop-color:rgb(63.921571%,70.980394%,76.862746%);stop-opacity:1;"/>
<stop offset="0.174" style="stop-color:rgb(68.235296%,76.078433%,81.960785%);stop-opacity:1;"/>
<stop offset="0.276" style="stop-color:rgb(69.803923%,77.64706%,83.92157%);stop-opacity:1;"/>
</linearGradient>
<linearGradient id="linear2" gradientUnits="userSpaceOnUse" x1="21" y1="-699.197021" x2="21" y2="-692.765991" gradientTransform="matrix(0.770833,0,0,-0.770833,0,-514.916667)">
<stop offset="0" style="stop-color:rgb(29.411766%,29.411766%,29.411766%);stop-opacity:1;"/>
<stop offset="1" style="stop-color:rgb(23.137255%,23.137255%,23.137255%);stop-opacity:1;"/>
</linearGradient>
</defs>
<g id="surface20459">
<path style=" stroke:none;fill-rule:nonzero;fill:url(#linear0);" d="M 25.613281 9.566406 C 23.113281 7.136719 19.707031 5.636719 15.949219 5.636719 C 8.285156 5.636719 2.074219 11.847656 2.074219 19.511719 C 2.074219 27.171875 8.285156 33.386719 15.949219 33.386719 C 19.707031 33.386719 23.113281 31.882812 25.613281 29.457031 C 25.625 29.441406 25.640625 29.433594 25.65625 29.417969 L 25.703125 29.371094 C 25.738281 29.335938 25.777344 29.300781 25.8125 29.261719 L 34.476562 20.601562 C 35.078125 19.996094 35.078125 19.023438 34.476562 18.417969 L 25.8125 9.757812 C 25.777344 9.71875 25.738281 9.683594 25.703125 9.648438 L 25.65625 9.601562 C 25.640625 9.585938 25.625 9.578125 25.613281 9.566406 Z M 25.613281 9.566406 "/>
<use xlink:href="#surface20465" mask="url(#mask0)"/>
<use xlink:href="#surface20469" mask="url(#mask1)"/>
<path style=" stroke:none;fill-rule:nonzero;fill:url(#linear1);" d="M 20.8125 18.355469 L 19.269531 18.355469 L 19.269531 16.042969 C 19.269531 14.339844 17.886719 12.957031 16.1875 12.957031 C 14.488281 12.957031 13.105469 14.339844 13.105469 16.042969 L 13.105469 18.355469 L 11.5625 18.355469 L 11.5625 16.042969 C 11.5625 13.492188 13.636719 11.417969 16.1875 11.417969 C 18.738281 11.417969 20.8125 13.492188 20.8125 16.042969 Z M 20.8125 18.355469 "/>
<path style=" stroke:none;fill-rule:nonzero;fill:rgb(76.862746%,54.901963%,0%);fill-opacity:1;" d="M 21.582031 26.0625 L 10.792969 26.0625 C 10.367188 26.0625 10.019531 25.714844 10.019531 25.292969 L 10.019531 23.75 L 22.355469 23.75 L 22.355469 25.292969 C 22.355469 25.714844 22.007812 26.0625 21.582031 26.0625 Z M 21.582031 26.0625 "/>
<path style=" stroke:none;fill-rule:nonzero;fill:rgb(89.019608%,65.098041%,0%);fill-opacity:1;" d="M 10.019531 21.4375 L 22.355469 21.4375 L 22.355469 23.75 L 10.019531 23.75 Z M 10.019531 21.4375 "/>
<path style=" stroke:none;fill-rule:nonzero;fill:rgb(92.941177%,74.509805%,0%);fill-opacity:1;" d="M 10.019531 19.125 L 22.355469 19.125 L 22.355469 21.4375 L 10.019531 21.4375 Z M 10.019531 19.125 "/>
<path style=" stroke:none;fill-rule:nonzero;fill:rgb(98.039216%,83.529413%,0%);fill-opacity:1;" d="M 22.355469 19.125 L 10.019531 19.125 L 10.019531 17.582031 C 10.019531 17.15625 10.367188 16.8125 10.792969 16.8125 L 21.582031 16.8125 C 22.007812 16.8125 22.355469 17.15625 22.355469 17.582031 Z M 22.355469 19.125 "/>
<path style=" stroke:none;fill-rule:nonzero;fill:url(#linear2);" d="M 17.730469 20.667969 C 17.730469 19.8125 17.039062 19.125 16.1875 19.125 C 15.335938 19.125 14.644531 19.8125 14.644531 20.667969 C 14.644531 21.3125 15.046875 21.863281 15.609375 22.09375 L 15.609375 23.171875 C 15.609375 23.492188 15.867188 23.75 16.1875 23.75 C 16.507812 23.75 16.765625 23.492188 16.765625 23.171875 L 16.765625 22.09375 C 17.328125 21.863281 17.730469 21.3125 17.730469 20.667969 Z M 17.730469 20.667969 "/>
</g>
</svg>
