<?xml version="1.0" encoding="UTF-8"?>
<svg xmlns="http://www.w3.org/2000/svg" xmlns:xlink="http://www.w3.org/1999/xlink" width="37.5pt" height="37.5pt" viewBox="0 0 37.5 37.5" version="1.1">
<g id="surface23620">
<path style=" stroke:none;fill-rule:nonzero;fill:rgb(77.254903%,89.411765%,98.039216%);fill-opacity:1;" d="M 17.921875 1.734375 C 8.980469 1.734375 1.734375 8.980469 1.734375 17.921875 C 1.734375 26.863281 8.980469 34.109375 17.921875 34.109375 C 26.863281 34.109375 34.109375 26.863281 34.109375 17.921875 C 34.109375 8.980469 26.863281 1.734375 17.921875 1.734375 Z M 17.921875 1.734375 "/>
<path style=" stroke:none;fill-rule:nonzero;fill:rgb(89.019608%,94.901961%,100%);fill-opacity:1;" d="M 7.351562 30.226562 C 8.867188 31.671875 10.664062 32.824219 12.65625 33.59375 L 32.375 13.875 L 32.375 10.160156 C 31.761719 9.144531 31.039062 8.203125 30.226562 7.351562 Z M 6.222656 29.042969 L 28.90625 6.359375 L 25.4375 6.359375 L 4.753906 27.042969 C 5.191406 27.75 5.683594 28.417969 6.222656 29.042969 Z M 4.507812 24.976562 L 23.703125 5.78125 L 21.96875 4.625 L 3.679688 22.914062 C 3.910156 23.625 4.183594 24.316406 4.507812 24.976562 Z M 4.507812 24.976562 "/>
<path style=" stroke:none;fill-rule:nonzero;fill:rgb(76.078433%,80.392158%,90.588236%);fill-opacity:1;" d="M 27.75 30.640625 L 8.09375 30.640625 L 8.4375 24.71875 L 13.296875 20.8125 L 17.921875 20.234375 L 22.160156 20.8125 L 26.828125 24.132812 Z M 27.75 30.640625 "/>
<path style=" stroke:none;fill-rule:nonzero;fill:rgb(80.784315%,84.705883%,91.764706%);fill-opacity:1;" d="M 17.921875 24.859375 C 19.644531 24.859375 21.210938 23.800781 22.363281 22.082031 C 22.699219 21.582031 22.554688 20.832031 22.066406 20.554688 L 21.96875 20.5 C 20.898438 22.105469 19.488281 23.25 17.921875 23.25 C 16.355469 23.25 14.945312 22.105469 13.875 20.5 L 13.777344 20.554688 C 13.289062 20.832031 13.144531 21.582031 13.480469 22.082031 C 14.632812 23.800781 16.199219 24.859375 17.921875 24.859375 Z M 17.921875 24.859375 "/>
<path style=" stroke:none;fill-rule:nonzero;fill:rgb(98.039216%,93.725491%,87.058824%);fill-opacity:1;" d="M 12.9375 18.164062 C 12.820312 18.164062 12.433594 17.84375 12.234375 17.09375 C 12.027344 16.332031 12.210938 15.835938 12.304688 15.808594 C 12.304688 15.808594 13.039062 15.683594 13.046875 15.535156 C 13.054688 15.324219 13.078125 15.113281 13.113281 14.90625 C 13.144531 14.734375 13.121094 14.539062 13.082031 14.242188 C 13.023438 13.78125 12.9375 13.09375 13.03125 12.140625 C 13.160156 10.839844 13.921875 10.066406 15.078125 10.066406 C 15.164062 10.066406 15.25 10.035156 15.320312 9.984375 C 15.878906 9.566406 16.996094 9.25 17.921875 9.25 L 18.328125 9.25 C 20.800781 9.25 22.589844 10.515625 23.320312 12.746094 C 23.039062 12.714844 23.132812 12.914062 22.933594 13.105469 C 22.777344 13.253906 22.246094 13.375 22.429688 13.878906 C 22.679688 14.558594 22.769531 14.964844 22.796875 15.535156 C 22.804688 15.683594 23.527344 15.425781 23.535156 15.425781 C 23.632812 15.457031 23.8125 16.339844 23.609375 17.09375 C 23.410156 17.84375 23.023438 18.164062 22.90625 18.164062 C 22.738281 18.164062 22.566406 18.28125 22.515625 18.453125 C 21.828125 20.761719 20.03125 23.097656 17.921875 23.097656 C 15.8125 23.097656 14.015625 20.761719 13.328125 18.453125 C 13.277344 18.28125 13.117188 18.164062 12.9375 18.164062 Z M 12.9375 18.164062 "/>
<path style=" stroke:none;fill-rule:nonzero;fill:rgb(80.392158%,63.137257%,65.490198%);fill-opacity:1;" d="M 13.085938 14.261719 C 13.085938 14.261719 14.839844 14.261719 15.609375 12.332031 C 16.765625 12.71875 17.152344 13.875 22.546875 13.488281 C 23.082031 13.453125 23.160156 13.640625 23.316406 13.488281 C 23.515625 13.296875 23.039062 12.714844 23.320312 12.746094 C 22.585938 10.515625 20.800781 9.25 18.328125 9.25 L 17.921875 9.25 C 16.996094 9.25 15.878906 9.566406 15.320312 9.984375 C 15.25 10.035156 15.164062 10.066406 15.078125 10.066406 C 13.925781 10.066406 13.164062 10.839844 13.03125 12.140625 C 12.9375 13.089844 13.023438 13.78125 13.082031 14.238281 C 13.085938 14.246094 13.085938 14.253906 13.085938 14.261719 Z M 13.085938 14.261719 "/>
<path style=" stroke:none;fill-rule:nonzero;fill:rgb(97.647059%,89.019608%,68.235296%);fill-opacity:1;" d="M 17.921875 1.734375 C 8.980469 1.734375 1.734375 8.980469 1.734375 17.921875 C 1.734375 26.863281 8.980469 34.109375 17.921875 34.109375 C 26.863281 34.109375 34.109375 26.863281 34.109375 17.921875 C 34.109375 8.980469 26.863281 1.734375 17.921875 1.734375 Z M 17.921875 30.640625 C 10.898438 30.640625 5.203125 24.945312 5.203125 17.921875 C 5.203125 10.898438 10.898438 5.203125 17.921875 5.203125 C 21.324219 5.203125 24.410156 6.539062 26.695312 8.710938 C 26.828125 8.839844 26.957031 8.96875 27.085938 9.101562 C 27.234375 9.257812 27.378906 9.414062 27.523438 9.578125 C 29.464844 11.8125 30.640625 14.730469 30.640625 17.921875 C 30.640625 24.945312 24.945312 30.640625 17.921875 30.640625 Z M 17.921875 30.640625 "/>
<path style=" stroke:none;fill-rule:nonzero;fill:rgb(96.470588%,82.745099%,59.215689%);fill-opacity:1;" d="M 17.921875 30.640625 C 10.898438 30.640625 5.203125 24.945312 5.203125 17.921875 L 4.242188 17.921875 C 2.804688 17.921875 1.722656 19.222656 1.960938 20.640625 C 3.253906 28.285156 9.910156 34.109375 17.921875 34.109375 C 25.933594 34.109375 32.589844 28.285156 33.882812 20.640625 C 34.121094 19.222656 33.039062 17.921875 31.601562 17.921875 L 30.640625 17.921875 C 30.640625 24.945312 24.945312 30.640625 17.921875 30.640625 Z M 17.921875 30.640625 "/>
<path style=" stroke:none;fill-rule:nonzero;fill:rgb(55.29412%,42.352942%,62.352943%);fill-opacity:1;" d="M 17.921875 1.15625 C 8.675781 1.15625 1.15625 8.675781 1.15625 17.921875 C 1.15625 27.167969 8.675781 34.6875 17.921875 34.6875 C 27.167969 34.6875 34.6875 27.167969 34.6875 17.921875 C 34.6875 8.675781 27.167969 1.15625 17.921875 1.15625 Z M 17.921875 33.53125 C 9.316406 33.53125 2.3125 26.527344 2.3125 17.921875 C 2.3125 9.316406 9.316406 2.3125 17.921875 2.3125 C 26.527344 2.3125 33.53125 9.316406 33.53125 17.921875 C 33.53125 26.527344 26.527344 33.53125 17.921875 33.53125 Z M 17.921875 33.53125 "/>
<path style=" stroke:none;fill-rule:nonzero;fill:rgb(55.29412%,42.352942%,62.352943%);fill-opacity:1;" d="M 17.921875 28.90625 C 17.601562 28.90625 17.34375 29.164062 17.34375 29.484375 L 17.34375 30.640625 C 17.34375 30.960938 17.601562 31.21875 17.921875 31.21875 C 18.242188 31.21875 18.5 30.960938 18.5 30.640625 L 18.5 29.484375 C 18.5 29.164062 18.242188 28.90625 17.921875 28.90625 Z M 21.398438 28.949219 C 21.316406 28.644531 21 28.460938 20.691406 28.542969 C 20.382812 28.625 20.199219 28.941406 20.28125 29.25 L 20.582031 30.367188 C 20.648438 30.625 20.882812 30.796875 21.136719 30.796875 C 21.1875 30.796875 21.238281 30.789062 21.289062 30.777344 C 21.597656 30.691406 21.78125 30.375 21.699219 30.066406 Z M 12.574219 27.472656 C 12.296875 27.3125 11.945312 27.410156 11.785156 27.683594 L 11.207031 28.6875 C 11.046875 28.960938 11.140625 29.316406 11.417969 29.476562 C 11.507812 29.527344 11.609375 29.554688 11.707031 29.554688 C 11.90625 29.554688 12.101562 29.449219 12.207031 29.265625 L 12.785156 28.261719 C 12.945312 27.988281 12.851562 27.632812 12.574219 27.472656 Z M 24.058594 27.683594 C 23.898438 27.410156 23.542969 27.3125 23.269531 27.472656 C 22.992188 27.632812 22.898438 27.988281 23.058594 28.261719 L 23.636719 29.265625 C 23.742188 29.449219 23.9375 29.554688 24.136719 29.554688 C 24.234375 29.554688 24.335938 29.527344 24.425781 29.476562 C 24.703125 29.316406 24.796875 28.964844 24.636719 28.6875 Z M 15.152344 28.542969 C 14.847656 28.460938 14.527344 28.644531 14.445312 28.949219 L 14.144531 30.066406 C 14.0625 30.375 14.246094 30.691406 14.554688 30.777344 C 14.605469 30.789062 14.65625 30.796875 14.707031 30.796875 C 14.960938 30.796875 15.195312 30.625 15.261719 30.367188 L 15.5625 29.25 C 15.644531 28.941406 15.460938 28.625 15.152344 28.542969 Z M 22.171875 6.546875 C 22.582031 6.699219 22.992188 6.878906 23.386719 7.078125 C 23.46875 7.117188 23.558594 7.140625 23.644531 7.140625 C 23.855469 7.140625 24.058594 7.023438 24.164062 6.820312 C 24.304688 6.535156 24.191406 6.1875 23.90625 6.042969 C 23.476562 5.828125 23.027344 5.632812 22.578125 5.460938 C 22.277344 5.351562 21.945312 5.503906 21.832031 5.800781 C 21.71875 6.101562 21.871094 6.433594 22.171875 6.546875 Z M 22.171875 6.546875 "/>
<path style=" stroke:none;fill-rule:nonzero;fill:rgb(55.29412%,42.352942%,62.352943%);fill-opacity:1;" d="M 27.324219 8.519531 C 26.945312 8.140625 26.535156 7.777344 26.113281 7.445312 C 25.859375 7.25 25.5 7.292969 25.300781 7.546875 C 25.105469 7.796875 25.148438 8.160156 25.402344 8.355469 C 25.785156 8.660156 26.160156 8.988281 26.507812 9.335938 C 30.742188 13.574219 31.175781 20.183594 27.828125 24.917969 C 26.515625 22.691406 24.546875 21.078125 22.273438 20.296875 C 22.582031 19.769531 22.839844 19.207031 23.035156 18.640625 C 23.527344 18.414062 23.953125 17.824219 24.164062 17.039062 C 24.476562 15.863281 24.160156 14.863281 23.414062 14.664062 C 23.398438 14.660156 23.382812 14.65625 23.371094 14.652344 C 23.324219 14.363281 23.25 14.078125 23.136719 13.746094 C 23.1875 13.761719 23.238281 13.78125 23.28125 13.800781 C 23.480469 13.882812 23.710938 13.847656 23.875 13.710938 C 24.039062 13.570312 24.117188 13.355469 24.070312 13.144531 C 23.433594 10.238281 21.277344 8.503906 18.300781 8.503906 L 17.921875 8.503906 C 17.09375 8.503906 15.886719 8.742188 15.078125 9.269531 C 13.605469 9.351562 12.5625 10.429688 12.398438 12.066406 C 12.300781 13.0625 12.394531 13.800781 12.449219 14.242188 C 12.46875 14.378906 12.488281 14.542969 12.488281 14.582031 C 12.484375 14.605469 12.480469 14.628906 12.476562 14.652344 C 12.460938 14.65625 12.445312 14.660156 12.429688 14.664062 C 11.683594 14.863281 11.367188 15.863281 11.679688 17.039062 C 11.890625 17.824219 12.316406 18.414062 12.808594 18.640625 C 13.003906 19.207031 13.261719 19.769531 13.570312 20.296875 C 11.296875 21.082031 9.324219 22.691406 8.015625 24.917969 C 4.667969 20.183594 5.101562 13.574219 9.335938 9.335938 C 12.082031 6.59375 16.011719 5.320312 19.851562 5.933594 C 20.164062 5.984375 20.464844 5.769531 20.511719 5.457031 C 20.566406 5.140625 20.347656 4.84375 20.035156 4.792969 C 15.832031 4.117188 11.527344 5.511719 8.519531 8.519531 C 3.335938 13.703125 3.335938 22.140625 8.519531 27.324219 C 8.632812 27.4375 8.78125 27.492188 8.929688 27.492188 C 9.074219 27.492188 9.222656 27.4375 9.335938 27.324219 C 9.5625 27.097656 9.5625 26.730469 9.335938 26.507812 C 9.144531 26.3125 8.96875 26.105469 8.792969 25.902344 C 10.007812 23.609375 11.972656 21.976562 14.25 21.285156 C 15.21875 22.496094 16.5 23.355469 17.921875 23.355469 C 19.34375 23.355469 20.625 22.496094 21.59375 21.285156 C 23.871094 21.976562 25.835938 23.609375 27.050781 25.902344 C 26.875 26.105469 26.699219 26.3125 26.507812 26.503906 C 26.28125 26.730469 26.28125 27.097656 26.507812 27.324219 C 26.621094 27.433594 26.765625 27.492188 26.914062 27.492188 C 27.0625 27.492188 27.210938 27.433594 27.324219 27.324219 C 32.507812 22.140625 32.507812 13.703125 27.324219 8.519531 Z M 17.921875 22.203125 C 16.066406 22.203125 14.425781 20.039062 13.820312 18.003906 C 13.746094 17.757812 13.554688 17.59375 13.300781 17.59375 C 13.300781 17.59375 13.300781 17.59375 13.296875 17.59375 C 13.222656 17.566406 12.949219 17.300781 12.796875 16.738281 C 12.683594 16.316406 12.714844 16.003906 12.757812 15.847656 C 12.914062 15.914062 13.09375 15.910156 13.25 15.832031 C 13.433594 15.734375 13.554688 15.550781 13.566406 15.34375 C 13.574219 15.15625 13.59375 14.964844 13.625 14.78125 C 13.660156 14.589844 13.632812 14.382812 13.597656 14.097656 C 13.542969 13.679688 13.464844 13.046875 13.550781 12.183594 C 13.664062 11.0625 14.285156 10.421875 15.265625 10.421875 C 15.390625 10.421875 15.511719 10.378906 15.613281 10.304688 C 16.09375 9.941406 17.109375 9.660156 17.921875 9.660156 L 18.304688 9.660156 C 20.417969 9.660156 21.972656 10.691406 22.679688 12.523438 C 22.46875 12.542969 22.269531 12.609375 22.105469 12.765625 C 21.953125 12.914062 21.726562 13.25 21.949219 13.851562 C 22.175781 14.46875 22.257812 14.832031 22.28125 15.34375 C 22.289062 15.550781 22.425781 15.726562 22.609375 15.820312 C 22.753906 15.894531 22.933594 15.898438 23.085938 15.84375 C 23.128906 16 23.160156 16.3125 23.046875 16.738281 C 22.894531 17.300781 22.621094 17.566406 22.578125 17.589844 C 22.320312 17.589844 22.097656 17.757812 22.023438 18.003906 C 21.417969 20.039062 19.777344 22.203125 17.921875 22.203125 Z M 17.921875 22.203125 "/>
<path style=" stroke:none;fill-rule:nonzero;fill:rgb(55.29412%,42.352942%,62.352943%);fill-opacity:1;" d="M 20.839844 12.6875 L 19.867188 12.6875 C 18.804688 12.6875 17.742188 12.441406 16.785156 11.976562 L 16.191406 11.6875 C 15.761719 11.476562 15.234375 11.621094 14.972656 12.023438 L 14.363281 12.949219 C 14.1875 13.214844 14.261719 13.574219 14.527344 13.75 C 14.625 13.8125 14.734375 13.84375 14.84375 13.84375 C 15.03125 13.84375 15.21875 13.753906 15.328125 13.585938 L 15.84375 12.804688 L 16.28125 13.019531 C 17.390625 13.558594 18.632812 13.84375 19.867188 13.84375 L 20.839844 13.84375 C 21.160156 13.84375 21.417969 13.585938 21.417969 13.265625 C 21.417969 12.949219 21.160156 12.6875 20.839844 12.6875 Z M 20.839844 12.6875 "/>
</g>
</svg>
