<?xml version="1.0" encoding="UTF-8"?>
<svg xmlns="http://www.w3.org/2000/svg" xmlns:xlink="http://www.w3.org/1999/xlink" width="37.5pt" height="37.5pt" viewBox="0 0 37.5 37.5" version="1.1">
<g id="surface20734">
<path style=" stroke:none;fill-rule:nonzero;fill:rgb(100%,100%,100%);fill-opacity:1;" d="M 18.5 6.167969 C 6.167969 6.167969 1.542969 18.5 1.542969 18.5 C 1.542969 18.5 6.167969 30.832031 18.5 30.832031 C 30.832031 30.832031 35.457031 18.5 35.457031 18.5 C 35.457031 18.5 30.832031 6.167969 18.5 6.167969 Z M 18.5 9.25 C 26.632812 9.25 30.746094 15.828125 32.078125 18.492188 C 30.746094 21.140625 26.601562 27.75 18.5 27.75 C 10.367188 27.75 6.253906 21.171875 4.921875 18.507812 C 6.253906 15.859375 10.398438 9.25 18.5 9.25 Z M 18.5 12.332031 C 15.09375 12.332031 12.332031 15.09375 12.332031 18.5 C 12.332031 21.90625 15.09375 24.667969 18.5 24.667969 C 21.90625 24.667969 24.667969 21.90625 24.667969 18.5 C 24.667969 15.09375 21.90625 12.332031 18.5 12.332031 Z M 18.5 15.417969 C 20.203125 15.417969 21.582031 16.796875 21.582031 18.5 C 21.582031 20.203125 20.203125 21.582031 18.5 21.582031 C 16.796875 21.582031 15.417969 20.203125 15.417969 18.5 C 15.417969 16.796875 16.796875 15.417969 18.5 15.417969 Z M 18.5 15.417969 "/>
</g>
</svg>
