<?xml version="1.0" encoding="UTF-8"?>
<!DOCTYPE svg PUBLIC "-//W3C//DTD SVG 1.1//EN" "http://www.w3.org/Graphics/SVG/1.1/DTD/svg11.dtd">
<svg xmlns="http://www.w3.org/2000/svg" version="1.1" width="1500px" height="1513px" style="shape-rendering:geometricPrecision; text-rendering:geometricPrecision; image-rendering:optimizeQuality; fill-rule:evenodd; clip-rule:evenodd" xmlns:xlink="http://www.w3.org/1999/xlink">
<g><path style="opacity:0.967" fill="#fdfdfe" d="M 167.5,50.5 C 557.167,50.3333 946.833,50.5 1336.5,51C 1385.08,55.6886 1422.25,78.5219 1448,119.5C 1458.54,138.12 1464.87,158.12 1467,179.5C 1467.67,570.833 1467.67,962.167 1467,1353.5C 1460.07,1408.07 1431.9,1447.24 1382.5,1471C 1367.31,1476.71 1351.64,1480.37 1335.5,1482C 946.167,1482.67 556.833,1482.67 167.5,1482C 118.439,1477.23 80.9388,1454.07 55,1412.5C 43.3607,1390.98 37.0274,1367.98 36,1343.5C 35.3333,958.833 35.3333,574.167 36,189.5C 40.2406,124.957 72.4072,81.1237 132.5,58C 144.138,54.6687 155.805,52.1687 167.5,50.5 Z"/></g>
<g><path style="opacity:1" fill="#2e3192" d="M 162.5,71.5 C 554.833,71.3333 947.167,71.5 1339.5,72C 1383.72,78.0132 1415.89,100.847 1436,140.5C 1441.85,153.227 1445.52,166.561 1447,180.5C 1447.67,570.5 1447.67,960.5 1447,1350.5C 1437.96,1412.88 1402.46,1449.71 1340.5,1461C 947.5,1461.67 554.5,1461.67 161.5,1461C 114.827,1452.99 82.327,1427.16 64,1383.5C 59.796,1372.55 57.4627,1361.22 57,1349.5C 56.3333,958.833 56.3333,568.167 57,177.5C 65.7302,125.434 95.2302,91.2676 145.5,75C 151.27,73.671 156.937,72.5043 162.5,71.5 Z"/></g>
<g><path style="opacity:1" fill="#fafafc" d="M 730.5,180.5 C 882.071,177.566 1009.24,231.233 1112,341.5C 1208.86,454.442 1247.86,585.108 1229,733.5C 1203.12,884.878 1124.95,1000.38 994.5,1080C 877.338,1145.55 753.671,1161.55 623.5,1128C 479.958,1085.45 376.124,996.616 312,861.5C 255.034,728.008 255.368,594.675 313,461.5C 381.057,321.456 490.557,231.956 641.5,193C 670.929,186.203 700.596,182.036 730.5,180.5 Z"/></g>
<g><path style="opacity:1" fill="#303393" d="M 725.5,192.5 C 876.003,188.203 1002.17,240.87 1104,350.5C 1199.7,462.567 1237.03,591.9 1216,738.5C 1193.26,866.122 1130.09,968.288 1026.5,1045C 907.318,1127.03 776.984,1151.7 635.5,1119C 494.967,1080.11 392.133,995.612 327,865.5C 273.653,749.141 266.986,630.141 307,508.5C 357.496,373.004 449.662,277.837 583.5,223C 629.442,205.844 676.776,195.677 725.5,192.5 Z"/></g>
<g><path style="opacity:1" fill="#abd6d0" d="M 726.5,209.5 C 884.816,205.592 1013.32,264.925 1112,387.5C 1197.84,504.346 1224.17,633.679 1191,775.5C 1151.99,913.742 1067.82,1013.91 938.5,1076C 844.334,1117.02 747,1126.35 646.5,1104C 523.55,1072.01 428.716,1002.18 362,894.5C 298.383,782.959 282.716,664.959 315,540.5C 348.43,427.721 414.597,339.887 513.5,277C 579.026,237.102 650.026,214.602 726.5,209.5 Z"/></g>
<g><path style="opacity:1" fill="#313593" d="M 734.5,215.5 C 853.805,213.315 958.472,250.815 1048.5,328C 1153.07,424.618 1202.9,544.452 1198,687.5C 1187.43,827.5 1126.6,939.667 1015.5,1024C 898.726,1105.31 771.059,1128.64 632.5,1094C 505.711,1056.19 411.877,978.694 351,861.5C 291.24,734.046 289.24,605.712 345,476.5C 391.721,378.446 463.888,305.612 561.5,258C 616.453,232.345 674.12,218.178 734.5,215.5 Z"/></g>
<g><path style="opacity:1" fill="#b0dcd2" d="M 724.5,224.5 C 863.5,219.748 980.666,267.415 1076,367.5C 1174.99,481.457 1209.33,612.79 1179,761.5C 1142.27,904.817 1056.44,1006.65 921.5,1067C 840.813,1100.1 757.48,1109.1 671.5,1094C 536.086,1065.54 434.252,991.372 366,871.5C 310.471,764.014 299.137,652.014 332,535.5C 368.343,423.242 437.51,337.742 539.5,279C 597.384,247.534 659.051,229.367 724.5,224.5 Z"/></g>
<g><path style="opacity:1" fill="#303392" d="M 688.5,256.5 C 702.142,254.827 714.476,257.994 725.5,266C 722.365,271.459 718.865,276.625 715,281.5C 712.485,280.885 710.152,279.885 708,278.5C 708.351,276.114 708.185,273.781 707.5,271.5C 698.782,268.372 690.448,269.205 682.5,274C 676.801,279.187 677.468,283.521 684.5,287C 696.497,289.666 708.497,292.333 720.5,295C 734.285,302.077 738.451,312.911 733,327.5C 723.604,339.778 711.104,345.445 695.5,344.5C 681.545,344.692 671.545,338.525 665.5,326C 670.333,321.833 675.167,317.667 680,313.5C 682.35,315.683 684.517,318.016 686.5,320.5C 681.266,325.896 682.6,329.396 690.5,331C 700.269,332.307 709.269,330.307 717.5,325C 720.67,319.676 720.003,315.01 715.5,311C 703.615,307.93 691.615,305.263 679.5,303C 663.741,295.459 659.907,283.959 668,268.5C 674.058,263.059 680.891,259.059 688.5,256.5 Z"/></g>
<g><path style="opacity:1" fill="#303393" d="M 789.5,256.5 C 793.911,256.021 798.078,256.688 802,258.5C 809.632,284.87 817.799,311.037 826.5,337C 827.448,337.483 828.448,337.649 829.5,337.5C 829.037,340.482 828.704,343.482 828.5,346.5C 820.456,345.828 812.456,344.828 804.5,343.5C 804.336,340.813 804.503,338.146 805,335.5C 806.205,334.929 807.372,334.262 808.5,333.5C 806.059,325.891 803.392,318.391 800.5,311C 792.201,309.587 783.868,308.92 775.5,309C 771.817,315.343 768.15,321.677 764.5,328C 765.783,329.136 766.783,330.469 767.5,332C 766.713,334.099 766.38,336.266 766.5,338.5C 759.145,338.052 751.812,337.385 744.5,336.5C 744.704,333.482 745.037,330.482 745.5,327.5C 748.642,327.201 750.809,325.534 752,322.5C 764.259,300.31 776.759,278.31 789.5,256.5 Z"/></g>
<g><path style="opacity:1" fill="#303392" d="M 874.5,271.5 C 888.76,276.644 902.76,282.477 916.5,289C 933.143,301.722 933.809,315.389 918.5,330C 912.389,333.906 905.722,335.406 898.5,334.5C 901.173,344.857 904.006,355.19 907,365.5C 911.152,368.744 911.319,372.411 907.5,376.5C 901.484,374.675 895.984,372.008 891,368.5C 887.491,354.465 883.991,340.465 880.5,326.5C 877.452,324.53 875.285,325.196 874,328.5C 871.597,335.211 869.097,341.878 866.5,348.5C 867.037,349.741 867.704,350.908 868.5,352C 867.521,354.433 866.855,356.933 866.5,359.5C 858.848,356.925 851.348,353.925 844,350.5C 844.306,348.177 844.972,345.844 846,343.5C 847.699,342.594 849.533,342.261 851.5,342.5C 858.927,322.306 866.927,302.306 875.5,282.5C 873.728,281.73 872.728,280.397 872.5,278.5C 873.467,276.238 874.134,273.905 874.5,271.5 Z"/></g>
<g><path style="opacity:1" fill="#a8d1ce" d="M 790.5,281.5 C 793.648,285.923 795.648,290.923 796.5,296.5C 792.05,296.579 787.717,295.912 783.5,294.5C 786.1,290.299 788.434,285.966 790.5,281.5 Z"/></g>
<g><path style="opacity:1" fill="#aedad1" d="M 888.5,291.5 C 894.105,293.628 899.772,295.795 905.5,298C 915.007,303.713 916.007,310.713 908.5,319C 899.222,320.188 890.555,318.355 882.5,313.5C 881.386,312.277 881.219,310.944 882,309.5C 884.466,303.576 886.632,297.576 888.5,291.5 Z"/></g>
<g><path style="opacity:1" fill="#2f3392" d="M 536.5,314.5 C 559.282,329.398 581.948,344.565 604.5,360C 606.235,360.651 607.902,360.485 609.5,359.5C 610.921,362.009 612.588,364.343 614.5,366.5C 607.833,370.833 601.167,375.167 594.5,379.5C 591.183,377.214 589.85,374.214 590.5,370.5C 584.221,365.353 577.554,360.687 570.5,356.5C 564.833,360 559.167,363.5 553.5,367C 551.387,367.872 550.054,369.372 549.5,371.5C 550.911,378.456 552.078,385.456 553,392.5C 554.113,393.711 555.28,393.711 556.5,392.5C 558.412,394.657 560.079,396.991 561.5,399.5C 555.419,403.625 549.252,407.625 543,411.5C 541.5,409.167 540,406.833 538.5,404.5C 539.896,403.148 540.563,401.481 540.5,399.5C 536.383,373.462 532.049,347.462 527.5,321.5C 530.349,318.916 533.349,316.583 536.5,314.5 Z"/></g>
<g><path style="opacity:1" fill="#aad4cf" d="M 544.5,339.5 C 549.277,342.06 553.944,344.893 558.5,348C 554.817,350.872 550.817,353.038 546.5,354.5C 545.725,349.516 545.058,344.516 544.5,339.5 Z"/></g>
<g><path style="opacity:1" fill="#2f3392" d="M 1000.5,339.5 C 1004.71,341.04 1008.04,343.707 1010.5,347.5C 1003.5,373.484 996.504,399.484 989.5,425.5C 989.722,427.055 990.389,428.389 991.5,429.5C 990.239,432.264 988.405,434.597 986,436.5C 979.556,431.69 973.389,426.524 967.5,421C 969.213,419.622 970.547,417.955 971.5,416C 973.134,415.506 974.801,415.34 976.5,415.5C 978.651,407.574 980.151,399.574 981,391.5C 975.458,386.289 969.625,381.456 963.5,377C 962.5,376.333 961.5,376.333 960.5,377C 954.003,380.414 947.67,384.081 941.5,388C 942.357,388.689 943.023,389.522 943.5,390.5C 941.667,392.833 939.833,395.167 938,397.5C 932.367,392.942 926.867,388.275 921.5,383.5C 923.123,378.712 926.456,376.545 931.5,377C 954.882,364.98 977.882,352.48 1000.5,339.5 Z"/></g>
<g><path style="opacity:1" fill="#313493" d="M 732.5,356.5 C 847.973,353.489 939.14,398.489 1006,491.5C 1063.29,581.747 1073.29,677.08 1036,777.5C 998.336,865.5 934.17,924.667 843.5,955C 730.033,986.551 629.366,963.551 541.5,886C 470.52,815.754 439.02,730.587 447,630.5C 463.441,512.754 525.608,429.254 633.5,380C 665.424,367.069 698.424,359.236 732.5,356.5 Z"/></g>
<g><path style="opacity:1" fill="#303393" d="M 472.5,361.5 C 475.787,362.264 478.454,364.097 480.5,367C 479.833,368 479.167,369 478.5,370C 494.5,384.667 510.5,399.333 526.5,414C 528.047,414.333 529.38,413.833 530.5,412.5C 533.196,413.851 535.53,415.684 537.5,418C 532.681,423.786 527.514,429.286 522,434.5C 519.815,433.072 517.815,431.405 516,429.5C 516.333,427.833 516.667,426.167 517,424.5C 512.911,419.738 508.244,415.738 503,412.5C 485.495,414.778 467.995,417.112 450.5,419.5C 463.325,431.49 476.325,443.323 489.5,455C 491.107,455.115 492.607,454.615 494,453.5C 496.298,454.961 498.465,456.628 500.5,458.5C 495.871,464.797 490.538,470.463 484.5,475.5C 482.35,473.851 480.35,472.018 478.5,470C 479.765,468.663 480.265,467.163 480,465.5C 464.5,451.333 449,437.167 433.5,423C 431.536,422.376 429.869,422.876 428.5,424.5C 426.167,422.667 423.833,420.833 421.5,419C 425.466,414.033 429.799,409.366 434.5,405C 451.828,402.334 469.162,399.834 486.5,397.5C 481.401,392.112 476.068,386.946 470.5,382C 468.536,381.376 466.869,381.876 465.5,383.5C 463.31,381.476 460.977,379.643 458.5,378C 463.377,372.627 468.044,367.127 472.5,361.5 Z"/></g>
<g><path style="opacity:1" fill="#a9d3cf" d="M 988.5,361.5 C 989.239,361.369 989.906,361.536 990.5,362C 988.625,367.032 987.125,372.199 986,377.5C 982.5,374.667 979,371.833 975.5,369C 979.896,366.473 984.229,363.973 988.5,361.5 Z"/></g>
<g><path style="opacity:1" fill="#b0ddd2" d="M 726.5,365.5 C 837.643,360.447 926.81,401.781 994,489.5C 1050.84,573.367 1063.84,663.7 1033,760.5C 1006.99,831.163 961.493,885.33 896.5,923C 808.074,969.235 718.074,972.568 626.5,933C 528.757,883.887 471.923,805.053 456,696.5C 447.008,576.338 491.508,481.838 589.5,413C 631.44,386.298 677.107,370.465 726.5,365.5 Z"/></g>
<g><path style="opacity:1" fill="#303392" d="M 1063.5,397.5 C 1065.02,397.511 1066.18,398.177 1067,399.5C 1069.67,403.5 1072.33,407.5 1075,411.5C 1074.6,428.244 1073.1,444.91 1070.5,461.5C 1070.83,462.833 1071.17,464.167 1071.5,465.5C 1077.36,461.138 1083.36,456.972 1089.5,453C 1090.77,451.204 1090.77,449.371 1089.5,447.5C 1091.66,445.588 1093.99,443.921 1096.5,442.5C 1100.83,448.5 1105.17,454.5 1109.5,460.5C 1107.45,462.555 1105.11,464.221 1102.5,465.5C 1101.13,463.876 1099.46,463.376 1097.5,464C 1079.95,476.267 1062.62,488.767 1045.5,501.5C 1046.43,502.768 1046.59,504.101 1046,505.5C 1044,506.833 1042,508.167 1040,509.5C 1035.25,503.914 1031.08,497.914 1027.5,491.5C 1029.19,489.234 1031.36,487.568 1034,486.5C 1035.58,488.029 1037.42,488.529 1039.5,488C 1043.64,485.361 1047.64,482.528 1051.5,479.5C 1054.36,461.227 1056.53,442.894 1058,424.5C 1043.92,434.457 1029.75,444.29 1015.5,454C 1014.23,455.796 1014.23,457.629 1015.5,459.5C 1013.45,461.555 1011.11,463.221 1008.5,464.5C 1004.17,458.5 999.833,452.5 995.5,446.5C 997.195,444.234 999.361,442.568 1002,441.5C 1003.58,443.029 1005.42,443.529 1007.5,443C 1025.05,430.733 1042.38,418.233 1059.5,405.5C 1058.57,404.232 1058.41,402.899 1059,401.5C 1060.4,399.93 1061.9,398.596 1063.5,397.5 Z"/></g>
<g><path style="opacity:1" fill="#303392" d="M 404.5,446.5 C 407.005,446.98 409.338,447.98 411.5,449.5C 411.833,451.5 412.167,453.5 412.5,455.5C 430.668,466.752 449.001,477.752 467.5,488.5C 470.645,485.221 473.811,485.554 477,489.5C 473.992,497.226 469.992,504.559 465,511.5C 463,510.167 461,508.833 459,507.5C 459.185,503.353 457.352,500.52 453.5,499C 436.897,488.781 420.063,478.948 403,469.5C 401.667,470.167 400.333,470.833 399,471.5C 396.766,470.299 394.599,468.965 392.5,467.5C 396.528,460.483 400.528,453.483 404.5,446.5 Z"/></g>
<g><path style="opacity:1" fill="#ec1c24" d="M 998.5,552.5 C 998.5,626.167 998.5,699.833 998.5,773.5C 937.998,773.168 877.664,773.501 817.5,774.5C 792.357,807.921 759.69,830.754 719.5,843C 713.591,844.549 707.591,845.382 701.5,845.5C 662.167,845.5 622.833,845.5 583.5,845.5C 583.831,820.328 583.498,795.328 582.5,770.5C 553.833,770.5 525.167,770.5 496.5,770.5C 496.5,696.5 496.5,622.5 496.5,548.5C 558.501,548.667 620.501,548.5 682.5,548C 703.786,519.695 731.119,499.695 764.5,488C 771.685,485.826 779.019,484.493 786.5,484C 826.499,483.5 866.499,483.333 906.5,483.5C 906.5,506.5 906.5,529.5 906.5,552.5C 937.167,552.5 967.833,552.5 998.5,552.5 Z"/></g>
<g><path style="opacity:1" fill="#303392" d="M 383.5,505.5 C 395.238,504.119 403.404,508.785 408,519.5C 415.691,512.466 424.524,510.632 434.5,514C 447.249,520.673 452.082,531.173 449,545.5C 443.657,560.694 438.824,576.027 434.5,591.5C 431.689,591.174 429.022,590.341 426.5,589C 426.045,586.688 425.045,584.688 423.5,583C 403.515,575.894 383.515,569.227 363.5,563C 362.845,564.487 361.845,565.653 360.5,566.5C 358.271,565.423 355.937,564.756 353.5,564.5C 357.899,548.471 363.399,532.804 370,517.5C 373.454,512.206 377.954,508.206 383.5,505.5 Z"/></g>
<g><path style="opacity:1" fill="#fffdfd" d="M 880.5,509.5 C 880.5,532.5 880.5,555.5 880.5,578.5C 911.5,578.5 942.5,578.5 973.5,578.5C 973.5,635.167 973.5,691.833 973.5,748.5C 916.496,748.167 859.496,748.5 802.5,749.5C 783.439,778.395 758.106,799.895 726.5,814C 718.353,816.787 710.02,818.787 701.5,820C 670.502,820.5 639.502,820.667 608.5,820.5C 608.5,795.167 608.5,769.833 608.5,744.5C 579.833,744.5 551.167,744.5 522.5,744.5C 522.5,687.833 522.5,631.167 522.5,574.5C 580.336,574.832 638.002,574.499 695.5,573.5C 713.092,547.751 736.092,528.251 764.5,515C 773.632,512.05 782.966,510.05 792.5,509C 822.003,508.17 851.336,508.336 880.5,509.5 Z"/></g>
<g><path style="opacity:1" fill="#303392" d="M 1048.5,516.5 C 1051.02,516.128 1053.02,516.961 1054.5,519C 1082.09,520.854 1109.59,523.021 1137,525.5C 1138.48,529.072 1139.15,532.738 1139,536.5C 1119.33,554.833 1099.67,573.167 1080,591.5C 1079.51,593.134 1079.34,594.801 1079.5,596.5C 1076.8,596.466 1074.3,597.133 1072,598.5C 1069.36,590.905 1066.52,583.405 1063.5,576C 1066.98,573.158 1070.48,572.991 1074,575.5C 1080.21,569.624 1086.04,563.457 1091.5,557C 1089.1,549.544 1086.44,542.21 1083.5,535C 1075.54,533.902 1067.54,533.402 1059.5,533.5C 1059.5,534.833 1059.5,536.167 1059.5,537.5C 1056.95,537.387 1054.62,538.054 1052.5,539.5C 1051.91,539.291 1051.41,538.957 1051,538.5C 1048.93,532.129 1046.77,525.796 1044.5,519.5C 1045.62,518.141 1046.96,517.141 1048.5,516.5 Z"/></g>
<g><path style="opacity:1" fill="#ed1d24" d="M 806.5,520.5 C 823.833,520.5 841.167,520.5 858.5,520.5C 858.5,544.167 858.5,567.833 858.5,591.5C 848.161,591.334 837.828,591.5 827.5,592C 818.882,595.619 811.716,601.119 806,608.5C 788.945,657.607 771.612,706.607 754,755.5C 742.7,783.563 722.2,800.397 692.5,806C 673.531,807.374 654.531,807.874 635.5,807.5C 635.5,781.833 635.5,756.167 635.5,730.5C 644.506,730.666 653.506,730.5 662.5,730C 673.764,727.953 682.931,722.453 690,713.5C 695.14,704.219 699.473,694.552 703,684.5C 714.861,650.586 726.527,616.586 738,582.5C 744.937,552.745 762.77,532.912 791.5,523C 796.375,521.364 801.375,520.531 806.5,520.5 Z"/></g>
<g><path style="opacity:1" fill="#f58083" d="M 806.5,520.5 C 823.992,519.503 841.659,519.17 859.5,519.5C 859.831,543.672 859.498,567.672 858.5,591.5C 858.5,567.833 858.5,544.167 858.5,520.5C 841.167,520.5 823.833,520.5 806.5,520.5 Z"/></g>
<g><path style="opacity:1" fill="#add9d1" d="M 385.5,521.5 C 392.139,521.456 395.805,524.623 396.5,531C 394.749,538.256 392.582,545.422 390,552.5C 389.439,553.022 388.772,553.355 388,553.5C 383.539,551.735 379.039,550.068 374.5,548.5C 374.435,538.038 378.102,529.038 385.5,521.5 Z"/></g>
<g><path style="opacity:1" fill="#aedad1" d="M 417.5,528.5 C 431.398,526.896 437.231,532.896 435,546.5C 432.327,553.019 430.16,559.686 428.5,566.5C 419.262,564.706 410.595,561.539 402.5,557C 404.771,545.954 409.771,536.454 417.5,528.5 Z"/></g>
<g><path style="opacity:1" fill="#abd7d0" d="M 1098.5,535.5 C 1103.84,535.816 1109.18,536.316 1114.5,537C 1110.97,540.869 1107.13,544.369 1103,547.5C 1101.01,543.704 1099.51,539.704 1098.5,535.5 Z"/></g>
<g><path style="opacity:1" fill="#dd4d50" d="M 998.5,552.5 C 999.499,626.331 999.833,700.331 999.5,774.5C 938.833,774.5 878.167,774.5 817.5,774.5C 877.664,773.501 937.998,773.168 998.5,773.5C 998.5,699.833 998.5,626.167 998.5,552.5 Z"/></g>
<g><path style="opacity:1" fill="#fab3b5" d="M 695.5,573.5 C 638.002,574.499 580.336,574.832 522.5,574.5C 522.5,631.167 522.5,687.833 522.5,744.5C 522.167,744.5 521.833,744.5 521.5,744.5C 521.5,687.5 521.5,630.5 521.5,573.5C 579.5,573.5 637.5,573.5 695.5,573.5 Z"/></g>
<g><path style="opacity:1" fill="#f4676b" d="M 880.5,509.5 C 881.497,531.994 881.831,554.661 881.5,577.5C 912.338,577.169 943.005,577.502 973.5,578.5C 942.5,578.5 911.5,578.5 880.5,578.5C 880.5,555.5 880.5,532.5 880.5,509.5 Z"/></g>
<g><path style="opacity:1" fill="#ed1e25" d="M 537.5,586.5 C 560.169,586.333 582.836,586.5 605.5,587C 641.714,593.2 655.214,614.034 646,649.5C 644.019,654.128 641.519,658.461 638.5,662.5C 646.962,671.877 650.128,682.877 648,695.5C 644.998,712.836 635.164,724.336 618.5,730C 591.502,730.5 564.502,730.667 537.5,730.5C 537.5,682.5 537.5,634.5 537.5,586.5 Z"/></g>
<g><path style="opacity:1" fill="#ed1c24" d="M 964.5,591.5 C 964.5,604.5 964.5,617.5 964.5,630.5C 956.316,630.174 948.316,630.508 940.5,631.5C 939.167,653.167 939.167,674.833 940.5,696.5C 948.316,697.492 956.316,697.826 964.5,697.5C 964.5,710.5 964.5,723.5 964.5,736.5C 930.167,736.5 895.833,736.5 861.5,736.5C 861.5,723.167 861.5,709.833 861.5,696.5C 869.833,696.5 878.167,696.5 886.5,696.5C 886.5,674.833 886.5,653.167 886.5,631.5C 878.167,631.5 869.833,631.5 861.5,631.5C 861.5,618.167 861.5,604.833 861.5,591.5C 895.833,591.5 930.167,591.5 964.5,591.5 Z"/></g>
<g><path style="opacity:1" fill="#f2555b" d="M 964.5,591.5 C 965.496,604.656 965.829,617.99 965.5,631.5C 957.167,631.5 948.833,631.5 940.5,631.5C 948.316,630.508 956.316,630.174 964.5,630.5C 964.5,617.5 964.5,604.5 964.5,591.5 Z"/></g>
<g><path style="opacity:1" fill="#fffdfd" d="M 578.5,628.5 C 587.173,628.334 595.84,628.5 604.5,629C 608.629,631.631 609.462,635.131 607,639.5C 606.25,640.126 605.416,640.626 604.5,641C 595.84,641.5 587.173,641.666 578.5,641.5C 578.5,637.167 578.5,632.833 578.5,628.5 Z"/></g>
<g><path style="opacity:1" fill="#313493" d="M 391.5,649.5 C 392.848,657.298 393.681,665.298 394,673.5C 401.758,675.49 409.591,677.323 417.5,679C 410.233,681.976 403.066,685.143 396,688.5C 396.393,696.493 396.726,704.493 397,712.5C 391.643,706.4 386.31,700.4 381,694.5C 373.891,697.816 366.724,700.65 359.5,703C 363.625,696.584 367.625,690.084 371.5,683.5C 366.687,677.519 361.687,671.686 356.5,666C 363.983,666.527 371.317,668.027 378.5,670.5C 383.222,663.77 387.555,656.77 391.5,649.5 Z"/></g>
<g><path style="opacity:1" fill="#313493" d="M 1113.5,649.5 C 1117.85,655.685 1121.85,662.185 1125.5,669C 1127.83,669.667 1130.17,669.667 1132.5,669C 1136.95,667.629 1141.45,666.462 1146,665.5C 1146.83,665.833 1147.67,666.167 1148.5,666.5C 1144.01,672.158 1139.34,677.658 1134.5,683C 1138.24,689.816 1142.24,696.483 1146.5,703C 1139.14,700.984 1131.97,698.151 1125,694.5C 1118.99,699.842 1113.66,705.842 1109,712.5C 1109.03,704.464 1109.37,696.464 1110,688.5C 1102.79,685.479 1095.62,682.313 1088.5,679C 1096.44,676.853 1104.44,675.019 1112.5,673.5C 1112.5,665.483 1112.83,657.483 1113.5,649.5 Z"/></g>
<g><path style="opacity:1" fill="#fffcfc" d="M 578.5,678.5 C 587.173,678.334 595.84,678.5 604.5,679C 608.292,681.053 609.458,684.219 608,688.5C 607.097,689.701 605.931,690.535 604.5,691C 595.84,691.5 587.173,691.666 578.5,691.5C 578.5,687.167 578.5,682.833 578.5,678.5 Z"/></g>
<g><path style="opacity:1" fill="#f2555b" d="M 940.5,696.5 C 948.833,696.5 957.167,696.5 965.5,696.5C 965.829,710.01 965.496,723.344 964.5,736.5C 964.5,723.5 964.5,710.5 964.5,697.5C 956.316,697.826 948.316,697.492 940.5,696.5 Z"/></g>
<g><path style="opacity:1" fill="#f2555b" d="M 521.5,744.5 C 521.833,744.5 522.167,744.5 522.5,744.5C 551.167,744.5 579.833,744.5 608.5,744.5C 608.5,769.833 608.5,795.167 608.5,820.5C 607.502,795.672 607.169,770.672 607.5,745.5C 578.662,745.831 549.995,745.498 521.5,744.5 Z"/></g>
<g><path style="opacity:1" fill="#303392" d="M 442.5,777.5 C 443.5,777.5 444.5,777.5 445.5,777.5C 447.695,784.247 450.195,790.914 453,797.5C 453.781,798.944 453.614,800.277 452.5,801.5C 448.763,804.435 445.429,804.102 442.5,800.5C 423.28,808.61 403.947,816.443 384.5,824C 382.955,825.688 381.955,827.688 381.5,830C 379.35,831.411 377.016,832.245 374.5,832.5C 372.305,825.753 369.805,819.086 367,812.5C 366.219,811.056 366.386,809.723 367.5,808.5C 371.156,805.626 374.322,805.96 377,809.5C 397.03,801.065 417.197,793.065 437.5,785.5C 437.185,783.774 437.019,782.107 437,780.5C 439.058,779.771 440.891,778.771 442.5,777.5 Z"/></g>
<g><path style="opacity:1" fill="#303392" d="M 1124.5,821.5 C 1124.5,820.167 1124.5,818.833 1124.5,817.5C 1115.98,817.174 1107.65,817.507 1099.5,818.5C 1095.74,825.863 1092.07,833.363 1088.5,841C 1093.88,846.929 1099.38,852.762 1105,858.5C 1108.65,856.346 1112.15,856.846 1115.5,860C 1112.56,866.703 1109.23,873.203 1105.5,879.5C 1084.69,857.343 1064.03,834.676 1043.5,811.5C 1045.04,808.254 1046.71,805.088 1048.5,802C 1071.17,801.355 1093.84,801.522 1116.5,802.5C 1121.5,802.333 1126.5,802.167 1131.5,802C 1132.33,801.167 1133.17,800.333 1134,799.5C 1136.71,800.437 1139.21,801.77 1141.5,803.5C 1138.21,810.416 1135.21,817.416 1132.5,824.5C 1129.35,824.585 1126.68,823.585 1124.5,821.5 Z"/></g>
<g><path style="opacity:1" fill="#2f3392" d="M 456.5,813.5 C 458.592,813.561 460.092,814.561 461,816.5C 464.59,821.014 467.09,826.014 468.5,831.5C 465.781,848.476 463.614,865.476 462,882.5C 468.364,877.971 474.864,873.637 481.5,869.5C 481.833,867.5 482.167,865.5 482.5,863.5C 484.5,862.167 486.5,860.833 488.5,859.5C 492.5,865.5 496.5,871.5 500.5,877.5C 497.903,881.887 494.569,882.887 490.5,880.5C 472.418,892.291 454.252,903.958 436,915.5C 435.805,917.207 435.805,918.874 436,920.5C 433.966,922.032 431.799,923.365 429.5,924.5C 425.5,918.5 421.5,912.5 417.5,906.5C 418.748,904.541 420.415,903.041 422.5,902C 424.833,902.333 427.167,902.667 429.5,903C 433.916,900.042 438.416,897.208 443,894.5C 445.994,876.545 448.328,858.545 450,840.5C 434.734,849.946 419.901,859.946 405.5,870.5C 406.428,871.768 406.595,873.101 406,874.5C 404.172,876.081 402.172,877.415 400,878.5C 395.336,872.509 391.17,866.176 387.5,859.5C 389.576,857.712 391.743,856.046 394,854.5C 395.263,856.797 397.097,857.63 399.5,857C 416.833,845.667 434.167,834.333 451.5,823C 452.343,821.213 452.51,819.38 452,817.5C 453.667,816.267 455.167,814.933 456.5,813.5 Z"/></g>
<g><path style="opacity:1" fill="#aad4cf" d="M 1067.5,818.5 C 1073.01,817.184 1078.68,817.184 1084.5,818.5C 1082.77,822.295 1080.77,825.962 1078.5,829.5C 1075.17,825.506 1071.51,821.839 1067.5,818.5 Z"/></g>
<g><path style="opacity:1" fill="#515ea3" d="M 1099.5,818.5 C 1107.65,817.507 1115.98,817.174 1124.5,817.5C 1124.5,818.833 1124.5,820.167 1124.5,821.5C 1123.6,820.791 1123.26,819.791 1123.5,818.5C 1115.5,818.5 1107.5,818.5 1099.5,818.5 Z"/></g>
<g><path style="opacity:1" fill="#303392" d="M 1028.5,841.5 C 1031.63,842.572 1034.3,844.406 1036.5,847C 1034.95,848.214 1033.78,849.714 1033,851.5C 1032.5,861.161 1032.33,870.828 1032.5,880.5C 1049.81,883.295 1067.14,885.961 1084.5,888.5C 1086.81,888.635 1088.81,887.969 1090.5,886.5C 1093.26,887.761 1095.6,889.595 1097.5,892C 1092.36,898.645 1087.02,905.145 1081.5,911.5C 1077.49,909.306 1074.65,906.639 1073,903.5C 1059.93,900.793 1046.76,898.793 1033.5,897.5C 1033.17,902.544 1033.51,907.544 1034.5,912.5C 1041.2,917.188 1047.53,922.355 1053.5,928C 1058.23,926.692 1061.89,928.192 1064.5,932.5C 1059.49,938.54 1054.49,944.54 1049.5,950.5C 1047.58,949.289 1045.74,947.956 1044,946.5C 1043.8,944.793 1043.8,943.126 1044,941.5C 1027.78,927.641 1011.28,914.141 994.5,901C 992.953,900.667 991.62,901.167 990.5,902.5C 987.736,901.239 985.403,899.405 983.5,897C 988.31,890.556 993.476,884.389 999,878.5C 1001.07,880.452 1003.24,882.285 1005.5,884C 1004.45,885.388 1004.28,886.888 1005,888.5C 1009.49,892.408 1014.15,896.074 1019,899.5C 1019.83,889.151 1019.67,878.817 1018.5,868.5C 1015.55,867.219 1013.22,865.219 1011.5,862.5C 1017.41,855.653 1023.08,848.653 1028.5,841.5 Z"/></g>
<g><path style="opacity:1" fill="#dd4e51" d="M 582.5,770.5 C 583.498,795.328 583.831,820.328 583.5,845.5C 622.833,845.5 662.167,845.5 701.5,845.5C 662.004,846.499 622.337,846.832 582.5,846.5C 582.5,821.167 582.5,795.833 582.5,770.5 Z"/></g>
<g><path style="opacity:1" fill="#303393" d="M 510.5,888.5 C 529.07,902.73 547.07,917.73 564.5,933.5C 560.511,938.821 556.178,943.821 551.5,948.5C 548.736,947.239 546.403,945.405 544.5,943C 547.722,941.01 548.222,938.51 546,935.5C 536.98,927.645 527.813,919.978 518.5,912.5C 515.146,916.019 511.98,919.686 509,923.5C 508.333,924.5 508.333,925.5 509,926.5C 514.557,931.691 520.39,936.524 526.5,941C 530.717,939.739 534.217,940.906 537,944.5C 536.253,946.976 534.919,949.309 533,951.5C 530.055,955.067 526.889,958.4 523.5,961.5C 521.329,959.828 519.329,957.995 517.5,956C 518.33,954.535 518.496,953.035 518,951.5C 511.374,946.543 505.04,941.209 499,935.5C 492.106,943.39 485.606,951.556 479.5,960C 481.043,963.502 480.043,966.169 476.5,968C 475.5,968.667 474.5,968.667 473.5,968C 468.124,962.956 462.458,958.289 456.5,954C 458.405,952.185 460.072,950.185 461.5,948C 463.126,948.195 464.793,948.195 466.5,948C 480.452,931.926 494.285,915.76 508,899.5C 508.115,897.893 507.615,896.393 506.5,895C 508.07,892.941 509.403,890.774 510.5,888.5 Z"/></g>
<g><path style="opacity:1" fill="#303393" d="M 969.5,907.5 C 972.002,909.17 974.002,911.336 975.5,914C 973.213,916.048 973.046,918.215 975,920.5C 988.523,935.721 1001.69,951.221 1014.5,967C 1016.44,966.695 1018.44,966.695 1020.5,967C 1021.64,968.973 1022.97,970.807 1024.5,972.5C 1018.19,977.804 1011.86,983.137 1005.5,988.5C 1003.39,986.47 1001.39,984.303 999.5,982C 1001.33,980.887 1002.16,979.387 1002,977.5C 988.285,961.24 974.452,945.074 960.5,929C 958.874,929.195 957.207,929.195 955.5,929C 952.898,927.446 951.731,925.28 952,922.5C 957.731,917.261 963.564,912.261 969.5,907.5 Z"/></g>
<g><path style="opacity:1" fill="#303392" d="M 940.5,932.5 C 942.017,932.511 943.184,933.177 944,934.5C 946.5,939 949,943.5 951.5,948C 949.507,949.999 947.173,951.499 944.5,952.5C 942.74,949.979 940.407,949.146 937.5,950C 932.884,952.298 928.551,954.965 924.5,958C 934.04,976.252 944.206,994.086 955,1011.5C 956.162,1010.81 957.328,1010.65 958.5,1011C 960.209,1012.92 961.543,1015.08 962.5,1017.5C 955.56,1021.89 948.393,1025.89 941,1029.5C 938.664,1028.02 937.164,1025.85 936.5,1023C 936.988,1021.42 937.988,1020.25 939.5,1019.5C 929.587,1001.34 919.42,983.338 909,965.5C 903.75,968.541 898.583,971.708 893.5,975C 894.576,976.726 894.743,978.559 894,980.5C 892.139,981.764 890.139,982.764 888,983.5C 884.09,978.691 880.923,973.358 878.5,967.5C 899.229,955.806 919.896,944.139 940.5,932.5 Z"/></g>
<g><path style="opacity:1" fill="#303392" d="M 577.5,949.5 C 595.435,947.976 610.601,953.642 623,966.5C 636.419,990.085 633.252,1011.25 613.5,1030C 590.174,1043.8 569.341,1040.63 551,1020.5C 537.763,995.618 541.929,974.118 563.5,956C 568.137,953.511 572.804,951.344 577.5,949.5 Z"/></g>
<g><path style="opacity:1" fill="#afdcd2" d="M 582.5,963.5 C 605.606,962.767 616.106,973.767 614,996.5C 611.086,1009.53 603.586,1018.7 591.5,1024C 569.044,1025.37 558.544,1014.87 560,992.5C 563.323,979.371 570.823,969.705 582.5,963.5 Z"/></g>
<g><path style="opacity:1" fill="#303392" d="M 853.5,973.5 C 857.302,974.779 860.469,977.112 863,980.5C 878.833,998.333 894.667,1016.17 910.5,1034C 916.096,1034.47 918.429,1037.64 917.5,1043.5C 909.929,1045.02 902.596,1047.36 895.5,1050.5C 894.576,1047.97 893.576,1045.47 892.5,1043C 892.759,1041.74 893.426,1040.74 894.5,1040C 889.286,1033.28 883.286,1027.45 876.5,1022.5C 868.875,1025.04 861.208,1027.38 853.5,1029.5C 853.309,1037.84 852.976,1046.17 852.5,1054.5C 854.144,1054.29 855.644,1054.62 857,1055.5C 857.977,1057.74 858.477,1060.07 858.5,1062.5C 851.787,1064.29 845.12,1066.29 838.5,1068.5C 837.308,1066.26 836.308,1063.93 835.5,1061.5C 836.145,1060.35 836.978,1059.35 838,1058.5C 840.388,1031.18 842.555,1003.85 844.5,976.5C 847.854,976.253 850.854,975.253 853.5,973.5 Z"/></g>
<g><path style="opacity:1" fill="#303392" d="M 650.5,976.5 C 665.217,979.344 679.884,982.51 694.5,986C 711.565,994.126 715.398,1006.63 706,1023.5C 700.111,1029.53 692.944,1033.19 684.5,1034.5C 688.728,1043.96 693.228,1053.29 698,1062.5C 702.634,1064.9 703.8,1068.57 701.5,1073.5C 695.327,1072.81 689.327,1071.47 683.5,1069.5C 677.79,1056.41 671.79,1043.41 665.5,1030.5C 664.264,1029.64 662.931,1028.98 661.5,1028.5C 658.94,1036.11 656.94,1043.95 655.5,1052C 655.672,1054.17 656.672,1055.84 658.5,1057C 657.678,1059.43 657.344,1061.93 657.5,1064.5C 649.457,1063.05 641.457,1061.38 633.5,1059.5C 633.963,1056.52 634.296,1053.52 634.5,1050.5C 636.167,1050.5 637.833,1050.5 639.5,1050.5C 643.832,1029.84 648.166,1009.17 652.5,988.5C 651.454,986.328 650.454,984.161 649.5,982C 649.943,980.175 650.277,978.342 650.5,976.5 Z"/></g>
<g><path style="opacity:1" fill="#313493" d="M 789.5,987.5 C 794.833,987.5 800.167,987.5 805.5,987.5C 805.5,990.5 805.5,993.5 805.5,996.5C 804.5,996.5 803.5,996.5 802.5,996.5C 808.006,1018.19 813.673,1039.86 819.5,1061.5C 820.689,1062.43 822.022,1062.76 823.5,1062.5C 823.5,1065.5 823.5,1068.5 823.5,1071.5C 815.825,1071.68 808.158,1072.01 800.5,1072.5C 800.239,1068.51 800.906,1064.67 802.5,1061C 798.542,1046.21 794.709,1031.38 791,1016.5C 786.14,1029.25 781.973,1042.25 778.5,1055.5C 775.279,1056.57 772.112,1056.57 769,1055.5C 763,1043.5 757,1031.5 751,1019.5C 749.1,1035.5 747.267,1051.5 745.5,1067.5C 746.833,1067.5 748.167,1067.5 749.5,1067.5C 749.5,1070.5 749.5,1073.5 749.5,1076.5C 743.638,1076.34 737.804,1076.67 732,1077.5C 728.669,1077.51 727.169,1075.85 727.5,1072.5C 727.289,1069.88 728.456,1068.21 731,1067.5C 733.611,1045.17 736.111,1022.84 738.5,1000.5C 737.178,1000.67 736.011,1000.34 735,999.5C 734.503,996.854 734.336,994.187 734.5,991.5C 740.855,991.275 747.188,991.108 753.5,991C 759.872,1003.58 766.372,1016.08 773,1028.5C 776.845,1015.45 780.845,1002.45 785,989.5C 786.622,988.901 788.122,988.234 789.5,987.5 Z"/></g>
<g><path style="opacity:1" fill="#aed9d1" d="M 667.5,993.5 C 675.326,994.632 682.992,996.465 690.5,999C 695.809,1003.11 696.976,1008.28 694,1014.5C 692.786,1016.05 691.286,1017.22 689.5,1018C 680.747,1018.81 672.081,1018.31 663.5,1016.5C 664.832,1008.84 666.166,1001.17 667.5,993.5 Z"/></g>
<g><path style="opacity:1" fill="#abd6d0" d="M 856.5,998.5 C 860.616,1002.05 864.283,1006.05 867.5,1010.5C 863.833,1012.75 859.833,1014.09 855.5,1014.5C 856.098,1009.19 856.431,1003.85 856.5,998.5 Z"/></g>
<g><path style="opacity:1" fill="#fcfcfd" d="M 861.5,1191.5 C 892.021,1189.35 907.688,1203.68 908.5,1234.5C 899.53,1235.53 890.53,1236.19 881.5,1236.5C 881.191,1231.46 879.691,1226.79 877,1222.5C 871.828,1217.85 866.494,1217.52 861,1221.5C 857.295,1227.42 857.795,1232.92 862.5,1238C 874.074,1241.85 885.074,1246.85 895.5,1253C 904.167,1260.16 909.334,1269.33 911,1280.5C 913.002,1296.49 910.002,1311.49 902,1325.5C 890.053,1338.81 875.22,1343.31 857.5,1339C 847.69,1336.35 840.523,1330.52 836,1321.5C 831.519,1311.31 829.019,1300.64 828.5,1289.5C 837.519,1289.04 846.519,1288.37 855.5,1287.5C 855.795,1295.58 858.462,1302.75 863.5,1309C 875.863,1314.16 882.529,1309.99 883.5,1296.5C 883.52,1291.37 881.52,1287.21 877.5,1284C 865.28,1279.56 853.946,1273.56 843.5,1266C 833.557,1253.57 830.057,1239.4 833,1223.5C 835.404,1206.27 844.904,1195.61 861.5,1191.5 Z"/></g>
<g><path style="opacity:1" fill="#fcfcfd" d="M 1198.5,1191.5 C 1229.02,1189.35 1244.69,1203.68 1245.5,1234.5C 1236.53,1235.53 1227.53,1236.19 1218.5,1236.5C 1218.19,1231.46 1216.69,1226.79 1214,1222.5C 1208.83,1217.85 1203.49,1217.52 1198,1221.5C 1194.29,1227.42 1194.79,1232.92 1199.5,1238C 1211.07,1241.85 1222.07,1246.85 1232.5,1253C 1241.17,1260.16 1246.33,1269.33 1248,1280.5C 1250,1296.49 1247,1311.49 1239,1325.5C 1227.05,1338.81 1212.22,1343.31 1194.5,1339C 1184.69,1336.35 1177.52,1330.52 1173,1321.5C 1168.52,1311.31 1166.02,1300.64 1165.5,1289.5C 1174.52,1289.04 1183.52,1288.37 1192.5,1287.5C 1192.8,1295.58 1195.46,1302.75 1200.5,1309C 1212.86,1314.16 1219.53,1309.99 1220.5,1296.5C 1220.52,1291.37 1218.52,1287.21 1214.5,1284C 1202.28,1279.56 1190.95,1273.56 1180.5,1266C 1170.56,1253.57 1167.06,1239.4 1170,1223.5C 1172.4,1206.27 1181.9,1195.61 1198.5,1191.5 Z"/></g>
<g><path style="opacity:1" fill="#9293c6" d="M 634.5,1194.5 C 659.661,1193.5 684.995,1193.17 710.5,1193.5C 710.5,1204.17 710.5,1214.83 710.5,1225.5C 694.833,1225.5 679.167,1225.5 663.5,1225.5C 663.5,1232.83 663.5,1240.17 663.5,1247.5C 662.508,1240.02 662.175,1232.35 662.5,1224.5C 678.167,1224.5 693.833,1224.5 709.5,1224.5C 709.5,1214.5 709.5,1204.5 709.5,1194.5C 684.5,1194.5 659.5,1194.5 634.5,1194.5 Z"/></g>
<g><path style="opacity:1" fill="#fdfdfe" d="M 256.5,1194.5 C 265.833,1194.5 275.167,1194.5 284.5,1194.5C 284.168,1226 284.502,1257.34 285.5,1288.5C 286.028,1296.41 289.695,1302.24 296.5,1306C 304.633,1307.55 310.133,1304.39 313,1296.5C 314.673,1291.64 315.506,1286.64 315.5,1281.5C 316.498,1252.67 316.831,1223.67 316.5,1194.5C 325.5,1194.5 334.5,1194.5 343.5,1194.5C 343.667,1227.5 343.5,1260.5 343,1293.5C 342.019,1309.47 335.853,1322.97 324.5,1334C 317.491,1338.39 309.824,1340.22 301.5,1339.5C 280.003,1341 266.503,1331.33 261,1310.5C 258.914,1303.65 257.58,1296.65 257,1289.5C 256.5,1257.84 256.333,1226.17 256.5,1194.5 Z"/></g>
<g><path style="opacity:1" fill="#6f70b3" d="M 256.5,1194.5 C 265.986,1193.51 275.652,1193.17 285.5,1193.5C 285.5,1225.17 285.5,1256.83 285.5,1288.5C 284.502,1257.34 284.168,1226 284.5,1194.5C 275.167,1194.5 265.833,1194.5 256.5,1194.5 Z"/></g>
<g><path style="opacity:1" fill="#c0c1de" d="M 343.5,1194.5 C 334.5,1194.5 325.5,1194.5 316.5,1194.5C 316.831,1223.67 316.498,1252.67 315.5,1281.5C 315.5,1252.17 315.5,1222.83 315.5,1193.5C 325.015,1193.17 334.348,1193.51 343.5,1194.5 Z"/></g>
<g><path style="opacity:1" fill="#9697c8" d="M 393.5,1194.5 C 384.833,1194.5 376.167,1194.5 367.5,1194.5C 367.5,1242.17 367.5,1289.83 367.5,1337.5C 366.501,1289.67 366.168,1241.67 366.5,1193.5C 375.682,1193.17 384.682,1193.51 393.5,1194.5 Z"/></g>
<g><path style="opacity:1" fill="#fefefe" d="M 393.5,1194.5 C 404.44,1219.38 415.106,1244.38 425.5,1269.5C 425.987,1270.47 426.487,1271.47 427,1272.5C 427.5,1246.5 427.667,1220.5 427.5,1194.5C 436.167,1194.5 444.833,1194.5 453.5,1194.5C 453.5,1242.17 453.5,1289.83 453.5,1337.5C 444.5,1337.5 435.5,1337.5 426.5,1337.5C 415.968,1311.75 405.135,1286.08 394,1260.5C 393.5,1286.16 393.333,1311.83 393.5,1337.5C 384.833,1337.5 376.167,1337.5 367.5,1337.5C 367.5,1289.83 367.5,1242.17 367.5,1194.5C 376.167,1194.5 384.833,1194.5 393.5,1194.5 Z"/></g>
<g><path style="opacity:1" fill="#6567ae" d="M 453.5,1337.5 C 453.5,1289.83 453.5,1242.17 453.5,1194.5C 444.833,1194.5 436.167,1194.5 427.5,1194.5C 427.667,1220.5 427.5,1246.5 427,1272.5C 426.487,1271.47 425.987,1270.47 425.5,1269.5C 426.498,1244.34 426.831,1219.01 426.5,1193.5C 435.833,1193.5 445.167,1193.5 454.5,1193.5C 454.832,1241.67 454.499,1289.67 453.5,1337.5 Z"/></g>
<g><path style="opacity:1" fill="#9697c8" d="M 505.5,1337.5 C 505.5,1289.83 505.5,1242.17 505.5,1194.5C 496.5,1194.5 487.5,1194.5 478.5,1194.5C 478.5,1242.17 478.5,1289.83 478.5,1337.5C 477.501,1289.67 477.168,1241.67 477.5,1193.5C 487.167,1193.5 496.833,1193.5 506.5,1193.5C 506.832,1241.67 506.499,1289.67 505.5,1337.5 Z"/></g>
<g><path style="opacity:1" fill="#fefffe" d="M 505.5,1337.5 C 496.5,1337.5 487.5,1337.5 478.5,1337.5C 478.5,1289.83 478.5,1242.17 478.5,1194.5C 487.5,1194.5 496.5,1194.5 505.5,1194.5C 505.5,1242.17 505.5,1289.83 505.5,1337.5 Z"/></g>
<g><path style="opacity:1" fill="#fbfbfd" d="M 521.5,1193.5 C 531.5,1193.5 541.5,1193.5 551.5,1193.5C 557.769,1226.68 564.603,1259.68 572,1292.5C 578.519,1260.2 584.852,1227.86 591,1195.5C 595.75,1194.2 600.75,1193.53 606,1193.5C 610.833,1193.83 615.667,1194.17 620.5,1194.5C 609.179,1241.45 598.012,1288.45 587,1335.5C 576.758,1337.46 566.258,1338.13 555.5,1337.5C 544.179,1289.55 532.845,1241.55 521.5,1193.5 Z"/></g>
<g><path style="opacity:1" fill="#fdfdfe" d="M 634.5,1194.5 C 659.5,1194.5 684.5,1194.5 709.5,1194.5C 709.5,1204.5 709.5,1214.5 709.5,1224.5C 693.833,1224.5 678.167,1224.5 662.5,1224.5C 662.175,1232.35 662.508,1240.02 663.5,1247.5C 677.833,1247.5 692.167,1247.5 706.5,1247.5C 706.5,1257.17 706.5,1266.83 706.5,1276.5C 691.833,1276.5 677.167,1276.5 662.5,1276.5C 662.5,1286.17 662.5,1295.83 662.5,1305.5C 678.833,1305.5 695.167,1305.5 711.5,1305.5C 711.5,1316.17 711.5,1326.83 711.5,1337.5C 685.833,1337.5 660.167,1337.5 634.5,1337.5C 634.5,1289.83 634.5,1242.17 634.5,1194.5 Z"/></g>
<g><path style="opacity:1" fill="#6c6eb2" d="M 785.5,1194.5 C 767.833,1194.5 750.167,1194.5 732.5,1194.5C 732.5,1242.17 732.5,1289.83 732.5,1337.5C 731.501,1289.67 731.168,1241.67 731.5,1193.5C 749.674,1193.17 767.674,1193.5 785.5,1194.5 Z"/></g>
<g><path style="opacity:1" fill="#fefefe" d="M 785.5,1194.5 C 799.47,1194.97 808.304,1201.97 812,1215.5C 816.63,1232.7 814.63,1249.04 806,1264.5C 802.548,1268.79 798.381,1272.12 793.5,1274.5C 799.346,1278.53 803.512,1283.86 806,1290.5C 811.166,1305.83 816.332,1321.16 821.5,1336.5C 810.833,1337.83 800.167,1337.83 789.5,1336.5C 783.565,1319.86 777.731,1303.19 772,1286.5C 769.785,1281.48 765.952,1279.14 760.5,1279.5C 760.5,1298.83 760.5,1318.17 760.5,1337.5C 751.167,1337.5 741.833,1337.5 732.5,1337.5C 732.5,1289.83 732.5,1242.17 732.5,1194.5C 750.167,1194.5 767.833,1194.5 785.5,1194.5 Z"/></g>
<g><path style="opacity:1" fill="#9697c8" d="M 958.5,1337.5 C 958.5,1289.83 958.5,1242.17 958.5,1194.5C 949.5,1194.5 940.5,1194.5 931.5,1194.5C 931.5,1242.17 931.5,1289.83 931.5,1337.5C 930.501,1289.67 930.168,1241.67 930.5,1193.5C 940.167,1193.5 949.833,1193.5 959.5,1193.5C 959.832,1241.67 959.499,1289.67 958.5,1337.5 Z"/></g>
<g><path style="opacity:1" fill="#fefffe" d="M 958.5,1337.5 C 949.5,1337.5 940.5,1337.5 931.5,1337.5C 931.5,1289.83 931.5,1242.17 931.5,1194.5C 940.5,1194.5 949.5,1194.5 958.5,1194.5C 958.5,1242.17 958.5,1289.83 958.5,1337.5 Z"/></g>
<g><path style="opacity:1" fill="#f9f8fb" d="M 975.5,1193.5 C 1003.83,1193.5 1032.17,1193.5 1060.5,1193.5C 1060.5,1205.83 1060.5,1218.17 1060.5,1230.5C 1051.17,1230.5 1041.83,1230.5 1032.5,1230.5C 1032.5,1266.17 1032.5,1301.83 1032.5,1337.5C 1022.83,1337.5 1013.17,1337.5 1003.5,1337.5C 1003.5,1301.83 1003.5,1266.17 1003.5,1230.5C 994.167,1230.5 984.833,1230.5 975.5,1230.5C 975.5,1218.17 975.5,1205.83 975.5,1193.5 Z"/></g>
<g><path style="opacity:1" fill="#fcfcfd" d="M 1093.5,1193.5 C 1104.26,1192.87 1114.76,1193.54 1125,1195.5C 1136.07,1242.87 1147.24,1290.2 1158.5,1337.5C 1148.5,1337.5 1138.5,1337.5 1128.5,1337.5C 1127.49,1330.11 1126.15,1322.78 1124.5,1315.5C 1113.85,1314.5 1103.19,1314.17 1092.5,1314.5C 1091.27,1322.19 1089.94,1329.85 1088.5,1337.5C 1078.83,1337.5 1069.17,1337.5 1059.5,1337.5C 1070.46,1289.39 1081.79,1241.39 1093.5,1193.5 Z"/></g>
<g><path style="opacity:1" fill="#2f3292" d="M 760.5,1223.5 C 767.257,1223.12 773.924,1223.62 780.5,1225C 784.196,1227.91 785.862,1231.74 785.5,1236.5C 786.335,1245.03 782.668,1250.2 774.5,1252C 769.845,1252.5 765.179,1252.67 760.5,1252.5C 760.5,1242.83 760.5,1233.17 760.5,1223.5 Z"/></g>
<g><path style="opacity:1" fill="#343594" d="M 1107.5,1233.5 C 1112.19,1249.3 1115.52,1265.64 1117.5,1282.5C 1111.5,1282.5 1105.5,1282.5 1099.5,1282.5C 1102.27,1266.18 1104.94,1249.85 1107.5,1233.5 Z"/></g>
<g><path style="opacity:1" fill="#8d8ec3" d="M 706.5,1276.5 C 692.343,1277.5 678.01,1277.83 663.5,1277.5C 663.5,1286.5 663.5,1295.5 663.5,1304.5C 679.675,1304.17 695.675,1304.5 711.5,1305.5C 695.167,1305.5 678.833,1305.5 662.5,1305.5C 662.5,1295.83 662.5,1286.17 662.5,1276.5C 677.167,1276.5 691.833,1276.5 706.5,1276.5 Z"/></g>
</svg>
