<svg id="b1c4598c-f215-4ed5-9380-b646a2004f36" data-name="Layer 1" xmlns="http://www.w3.org/2000/svg" width="500" height="500" viewBox="0 0 500 500">
  <rect width="500" height="500" rx="30" style="fill: #fff"/>
  <g>
    <path d="M373,57.09A39,39,0,0,0,362,41.29a38.72,38.72,0,0,0-63.88,29.42,38,38,0,0,0,2,12.32L67.5,240.13,47.06,253.91,68,270l107.4,81.84,17.34-50.64-80.53-48.55,201.32-151a38.32,38.32,0,0,0,23.23,7.74,38.73,38.73,0,0,0,38.71-38.72A37.88,37.88,0,0,0,373,57.09ZM336.8,78.46a7.75,7.75,0,1,1,7.74-7.75A7.75,7.75,0,0,1,336.8,78.46Z" style="fill: #00adee"/>
    <path d="M127,442.91A39,39,0,0,0,138,458.71a38.72,38.72,0,0,0,63.88-29.42,38,38,0,0,0-2-12.32l232.6-157.1,20.44-13.78L432,230l-107.4-81.84-17.34,50.64,80.53,48.55-201.32,151a38.32,38.32,0,0,0-23.23-7.74,38.73,38.73,0,0,0-38.71,38.72A37.88,37.88,0,0,0,127,442.91Zm36.23-21.37a7.75,7.75,0,1,1-7.74,7.75A7.75,7.75,0,0,1,163.2,421.54Z" style="fill: #00adee"/>
    <path d="M227.62,319.1,254.41,233h42.74l5.19-15.4H194.1L188.83,233h47.23l-23.92,76.74Z" style="fill: #00adee"/>
  </g>
</svg>
