<?xml version="1.0" encoding="UTF-8"?>
<svg xmlns="http://www.w3.org/2000/svg" xmlns:xlink="http://www.w3.org/1999/xlink" width="375pt" height="375pt" viewBox="0 0 375 375" version="1.1">
<g id="surface2163">
<path style=" stroke:none;fill-rule:nonzero;fill:rgb(100%,100%,100%);fill-opacity:1;" d="M 187.5 46.875 C 153.03125 46.875 125 74.90625 125 109.375 C 125 143.84375 153.03125 171.875 187.5 171.875 C 221.96875 171.875 250 143.84375 250 109.375 C 250 74.90625 221.96875 46.875 187.5 46.875 Z M 281.25 203.125 C 237.5 203.125 203.125 237.5 203.125 281.25 C 203.125 325 237.5 359.375 281.25 359.375 C 296.875 359.375 312.511719 354.675781 325.011719 346.863281 L 353.117188 375 L 375 353.117188 L 346.863281 325.011719 C 354.675781 312.511719 359.375 296.875 359.375 281.25 C 359.375 237.5 325 203.125 281.25 203.125 Z M 187.5 218.75 C 138.421875 218.75 46.875 242.90625 46.875 289.0625 L 46.875 328.125 L 182.554688 328.125 C 175.789062 313.90625 171.875 298.046875 171.875 281.25 C 171.875 258.046875 179.15625 236.574219 191.46875 218.871094 C 190.15625 218.839844 188.765625 218.75 187.5 218.75 Z M 281.25 234.375 C 307.8125 234.375 328.125 254.6875 328.125 281.25 C 328.125 307.8125 307.8125 328.125 281.25 328.125 C 254.6875 328.125 234.375 307.8125 234.375 281.25 C 234.375 254.6875 254.6875 234.375 281.25 234.375 Z M 281.25 234.375 "/>
</g>
</svg>
