<?xml version="1.0" encoding="UTF-8"?>
<svg xmlns="http://www.w3.org/2000/svg" xmlns:xlink="http://www.w3.org/1999/xlink" width="37.5pt" height="37.5pt" viewBox="0 0 37.5 37.5" version="1.1">
<g id="surface19428">
<path style=" stroke:none;fill-rule:nonzero;fill:rgb(30.980393%,76.47059%,96.862745%);fill-opacity:1;" d="M 22.355469 23.894531 C 22.355469 23.894531 21.582031 26.980469 18.5 26.980469 C 15.417969 26.980469 14.644531 23.894531 14.644531 23.894531 C 14.644531 23.894531 6.167969 25.425781 6.167969 33.917969 L 30.832031 33.917969 C 30.832031 25.457031 22.355469 23.894531 22.355469 23.894531 "/>
<path style=" stroke:none;fill-rule:nonzero;fill:rgb(100%,59.607846%,0%);fill-opacity:1;" d="M 18.5 28.519531 C 14.644531 28.519531 14.644531 23.894531 14.644531 23.894531 L 14.644531 19.269531 L 22.355469 19.269531 L 22.355469 23.894531 C 22.355469 23.894531 22.355469 28.519531 18.5 28.519531 Z M 18.5 28.519531 "/>
<path style=" stroke:none;fill-rule:nonzero;fill:rgb(100%,65.490198%,14.901961%);fill-opacity:1;" d="M 26.980469 14.644531 C 26.980469 15.496094 26.289062 16.1875 25.4375 16.1875 C 24.585938 16.1875 23.894531 15.496094 23.894531 14.644531 C 23.894531 13.792969 24.585938 13.105469 25.4375 13.105469 C 26.289062 13.105469 26.980469 13.792969 26.980469 14.644531 M 13.105469 14.644531 C 13.105469 15.496094 12.414062 16.1875 11.5625 16.1875 C 10.710938 16.1875 10.019531 15.496094 10.019531 14.644531 C 10.019531 13.792969 10.710938 13.105469 11.5625 13.105469 C 12.414062 13.105469 13.105469 13.792969 13.105469 14.644531 "/>
<path style=" stroke:none;fill-rule:nonzero;fill:rgb(100%,71.764708%,30.19608%);fill-opacity:1;" d="M 25.4375 10.019531 C 25.4375 4.136719 11.5625 6.1875 11.5625 10.019531 L 11.5625 15.417969 C 11.5625 19.25 14.667969 22.355469 18.5 22.355469 C 22.332031 22.355469 25.4375 19.25 25.4375 15.417969 Z M 25.4375 10.019531 "/>
<path style=" stroke:none;fill-rule:nonzero;fill:rgb(25.882354%,25.882354%,25.882354%);fill-opacity:1;" d="M 18.5 3.082031 C 13.816406 3.082031 10.792969 6.878906 10.792969 11.5625 L 10.792969 13.324219 L 12.332031 14.644531 L 12.332031 10.792969 L 21.582031 7.707031 L 24.667969 10.792969 L 24.667969 14.644531 L 26.207031 13.304688 L 26.207031 11.5625 C 26.207031 8.460938 25.410156 5.382812 21.582031 4.625 L 20.8125 3.082031 Z M 18.5 3.082031 "/>
<path style=" stroke:none;fill-rule:nonzero;fill:rgb(47.058824%,27.843139%,9.803922%);fill-opacity:1;" d="M 20.8125 14.644531 C 20.8125 15.070312 21.15625 15.417969 21.582031 15.417969 C 22.007812 15.417969 22.355469 15.070312 22.355469 14.644531 C 22.355469 14.21875 22.007812 13.875 21.582031 13.875 C 21.15625 13.875 20.8125 14.21875 20.8125 14.644531 M 14.644531 14.644531 C 14.644531 15.070312 14.992188 15.417969 15.417969 15.417969 C 15.84375 15.417969 16.1875 15.070312 16.1875 14.644531 C 16.1875 14.21875 15.84375 13.875 15.417969 13.875 C 14.992188 13.875 14.644531 14.21875 14.644531 14.644531 "/>
<path style=" stroke:none;fill-rule:nonzero;fill:rgb(0.392157%,34.117648%,60.784316%);fill-opacity:1;" d="M 18.5 28.519531 C 22.355469 28.519531 23.699219 25.492188 23.859375 24.335938 C 22.964844 24.011719 22.355469 23.894531 22.355469 23.894531 C 22.355469 23.894531 21.582031 26.980469 18.5 26.980469 C 15.417969 26.980469 14.644531 23.894531 14.644531 23.894531 C 14.644531 23.894531 14.035156 24.007812 13.140625 24.332031 C 13.296875 25.484375 14.644531 28.519531 18.5 28.519531 Z M 18.5 28.519531 "/>
</g>
</svg>
