<?xml version="1.0" encoding="UTF-8"?>
<svg xmlns="http://www.w3.org/2000/svg" xmlns:xlink="http://www.w3.org/1999/xlink" width="37.5pt" height="37.5pt" viewBox="0 0 37.5 37.5" version="1.1">
<g id="surface19574">
<path style=" stroke:none;fill-rule:nonzero;fill:rgb(88.235295%,92.156863%,94.901961%);fill-opacity:1;" d="M 1.386719 19.886719 L 28.210938 19.886719 L 28.210938 35.613281 L 1.386719 35.613281 Z M 1.386719 19.886719 "/>
<path style=" stroke:none;fill-rule:nonzero;fill:rgb(47.058824%,54.509807%,61.176473%);fill-opacity:1;" d="M 27.75 20.351562 L 27.75 35.148438 L 1.851562 35.148438 L 1.851562 20.351562 L 27.75 20.351562 M 28.675781 19.425781 L 0.925781 19.425781 L 0.925781 36.074219 L 28.675781 36.074219 Z M 28.675781 19.425781 "/>
<path style=" stroke:none;fill-rule:nonzero;fill:rgb(88.235295%,92.156863%,94.901961%);fill-opacity:1;" d="M 2.179688 29.796875 L 27.421875 29.796875 L 27.421875 36.074219 L 2.179688 36.074219 Z M 2.179688 29.796875 "/>
<path style=" stroke:none;fill-rule:nonzero;fill:rgb(72.941178%,87.843138%,74.117649%);fill-opacity:1;" d="M 2.390625 17.113281 L 2.992188 13.234375 C 3.3125 11.195312 5.039062 9.710938 7.105469 9.710938 L 9.542969 9.710938 C 11.609375 9.710938 13.339844 11.195312 13.65625 13.234375 L 14.261719 17.113281 Z M 2.390625 17.113281 "/>
<path style=" stroke:none;fill-rule:nonzero;fill:rgb(36.862746%,61.176473%,46.27451%);fill-opacity:1;" d="M 9.542969 10.175781 C 11.378906 10.175781 12.917969 11.492188 13.199219 13.304688 L 13.71875 16.648438 L 2.929688 16.648438 L 3.449219 13.304688 C 3.730469 11.492188 5.269531 10.175781 7.105469 10.175781 L 9.542969 10.175781 M 9.542969 9.25 L 7.105469 9.25 C 4.824219 9.25 2.886719 10.910156 2.535156 13.164062 L 1.851562 17.574219 L 14.800781 17.574219 L 14.113281 13.164062 C 13.761719 10.910156 11.824219 9.25 9.542969 9.25 Z M 9.542969 9.25 "/>
<path style=" stroke:none;fill-rule:nonzero;fill:rgb(88.235295%,92.156863%,94.901961%);fill-opacity:1;" d="M 1.386719 16.1875 L 28.210938 16.1875 L 28.210938 19.886719 L 1.386719 19.886719 Z M 1.386719 16.1875 "/>
<path style=" stroke:none;fill-rule:nonzero;fill:rgb(47.058824%,54.509807%,61.176473%);fill-opacity:1;" d="M 27.75 16.648438 L 27.75 19.425781 L 1.851562 19.425781 L 1.851562 16.648438 L 27.75 16.648438 M 28.675781 15.726562 L 0.925781 15.726562 L 0.925781 20.351562 L 28.675781 20.351562 Z M 28.675781 15.726562 "/>
<path style=" stroke:none;fill-rule:nonzero;fill:rgb(96.078432%,80.784315%,52.156866%);fill-opacity:1;" d="M 29.601562 1.386719 C 27.8125 1.386719 26.363281 2.835938 26.363281 4.625 C 26.363281 6.414062 27.8125 7.863281 29.601562 7.863281 C 31.386719 7.863281 32.835938 6.414062 32.835938 4.625 C 32.835938 2.835938 31.386719 1.386719 29.601562 1.386719 Z M 29.601562 1.386719 "/>
<path style=" stroke:none;fill-rule:nonzero;fill:rgb(58.823532%,47.843137%,26.666668%);fill-opacity:1;" d="M 29.601562 1.851562 C 31.128906 1.851562 32.375 3.09375 32.375 4.625 C 32.375 6.15625 31.128906 7.398438 29.601562 7.398438 C 28.070312 7.398438 26.824219 6.15625 26.824219 4.625 C 26.824219 3.09375 28.070312 1.851562 29.601562 1.851562 M 29.601562 0.925781 C 27.558594 0.925781 25.898438 2.582031 25.898438 4.625 C 25.898438 6.667969 27.558594 8.324219 29.601562 8.324219 C 31.644531 8.324219 33.300781 6.667969 33.300781 4.625 C 33.300781 2.582031 31.644531 0.925781 29.601562 0.925781 Z M 29.601562 0.925781 "/>
<path style=" stroke:none;fill-rule:nonzero;fill:rgb(96.078432%,80.784315%,52.156866%);fill-opacity:1;" d="M 8.324219 1.386719 C 6.535156 1.386719 5.085938 2.835938 5.085938 4.625 C 5.085938 6.414062 6.535156 7.863281 8.324219 7.863281 C 10.113281 7.863281 11.5625 6.414062 11.5625 4.625 C 11.5625 2.835938 10.113281 1.386719 8.324219 1.386719 Z M 8.324219 1.386719 "/>
<path style=" stroke:none;fill-rule:nonzero;fill:rgb(58.823532%,47.843137%,26.666668%);fill-opacity:1;" d="M 8.324219 1.851562 C 9.855469 1.851562 11.101562 3.09375 11.101562 4.625 C 11.101562 6.15625 9.855469 7.398438 8.324219 7.398438 C 6.796875 7.398438 5.550781 6.15625 5.550781 4.625 C 5.550781 3.09375 6.796875 1.851562 8.324219 1.851562 M 8.324219 0.925781 C 6.28125 0.925781 4.625 2.582031 4.625 4.625 C 4.625 6.667969 6.28125 8.324219 8.324219 8.324219 C 10.367188 8.324219 12.023438 6.667969 12.023438 4.625 C 12.023438 2.582031 10.367188 0.925781 8.324219 0.925781 Z M 8.324219 0.925781 "/>
<path style=" stroke:none;fill-rule:nonzero;fill:rgb(88.235295%,92.156863%,94.901961%);fill-opacity:1;" d="M 15.398438 15.726562 C 14.636719 16.78125 14.574219 18.292969 15.363281 19.414062 C 15.976562 20.28125 19.460938 22 20.449219 22 C 21.074219 22 29.484375 22 29.484375 22 L 27.308594 15.726562 Z M 15.398438 15.726562 "/>
<path style=" stroke:none;fill-rule:nonzero;fill:rgb(96.078432%,80.784315%,52.156866%);fill-opacity:1;" d="M 17.609375 18.960938 C 17.148438 18.960938 16.710938 18.738281 16.445312 18.359375 C 16.226562 18.050781 16.144531 17.671875 16.207031 17.300781 C 16.273438 16.925781 16.480469 16.597656 16.789062 16.378906 L 23.285156 11.808594 L 25.007812 14.074219 L 18.425781 18.703125 C 18.183594 18.871094 17.902344 18.960938 17.609375 18.960938 Z M 17.609375 18.960938 "/>
<path style=" stroke:none;fill-rule:nonzero;fill:rgb(58.823532%,47.843137%,26.666668%);fill-opacity:1;" d="M 23.1875 12.445312 L 24.347656 13.96875 L 18.160156 18.324219 C 17.996094 18.441406 17.808594 18.5 17.609375 18.5 C 17.296875 18.5 17.003906 18.347656 16.824219 18.09375 C 16.519531 17.660156 16.625 17.0625 17.058594 16.757812 L 23.1875 12.445312 M 23.382812 11.175781 L 16.523438 16.003906 C 15.675781 16.601562 15.46875 17.777344 16.066406 18.625 C 16.433594 19.148438 17.019531 19.425781 17.609375 19.425781 C 17.984375 19.425781 18.363281 19.3125 18.691406 19.082031 L 25.664062 14.171875 Z M 23.382812 11.175781 "/>
<path style=" stroke:none;fill-rule:nonzero;fill:rgb(96.078432%,80.784315%,52.156866%);fill-opacity:1;" d="M 34.226562 24.511719 C 33.460938 24.511719 32.835938 23.890625 32.835938 23.125 L 32.835938 16.1875 L 35.613281 16.1875 L 35.613281 23.125 C 35.613281 23.890625 34.988281 24.511719 34.226562 24.511719 Z M 34.226562 24.511719 "/>
<path style=" stroke:none;fill-rule:nonzero;fill:rgb(58.823532%,47.843137%,26.666668%);fill-opacity:1;" d="M 35.148438 16.648438 L 35.148438 23.125 C 35.148438 23.632812 34.734375 24.050781 34.226562 24.050781 C 33.714844 24.050781 33.300781 23.632812 33.300781 23.125 L 33.300781 16.648438 L 35.148438 16.648438 M 36.074219 15.726562 L 32.375 15.726562 L 32.375 23.125 C 32.375 24.148438 33.203125 24.976562 34.226562 24.976562 C 35.246094 24.976562 36.074219 24.148438 36.074219 23.125 Z M 36.074219 15.726562 "/>
<path style=" stroke:none;fill-rule:nonzero;fill:rgb(54.509807%,71.764708%,94.117647%);fill-opacity:1;" d="M 26.335938 35.613281 L 25.4375 21.246094 L 25.4375 14.425781 L 19.457031 18.015625 L 17.773438 15.6875 L 24.417969 11.023438 C 25.621094 10.164062 27.039062 9.714844 28.515625 9.710938 L 31.597656 9.710938 C 31.71875 9.710938 31.847656 9.730469 31.992188 9.765625 C 34.074219 10.0625 35.613281 11.828125 35.613281 13.875 L 35.613281 21.796875 L 32.867188 21.757812 L 31.941406 35.613281 Z M 26.335938 35.613281 "/>
<path style=" stroke:none;fill-rule:nonzero;fill:rgb(30.588236%,47.843137%,70.980394%);fill-opacity:1;" d="M 31.59375 10.175781 C 31.679688 10.175781 31.773438 10.1875 31.886719 10.214844 L 31.929688 10.226562 L 31.972656 10.230469 C 33.785156 10.488281 35.148438 12.054688 35.148438 13.875 L 35.148438 21.328125 L 33.3125 21.300781 L 32.433594 21.289062 L 32.375 22.164062 L 31.507812 35.148438 L 26.769531 35.148438 L 25.898438 21.246094 L 25.898438 13.609375 L 24.5 14.449219 L 19.582031 17.402344 L 18.421875 15.796875 L 24.6875 11.398438 C 25.808594 10.597656 27.132812 10.175781 28.511719 10.175781 L 31.59375 10.175781 M 31.59375 9.25 L 28.742188 9.25 C 28.742188 9.25 28.738281 9.25 28.738281 9.25 L 28.511719 9.25 C 26.949219 9.25 25.425781 9.738281 24.148438 10.644531 L 17.125 15.578125 L 19.332031 18.632812 L 24.976562 15.242188 L 24.976562 21.273438 L 25.898438 36.074219 L 32.375 36.074219 L 33.296875 22.226562 L 36.074219 22.265625 L 36.074219 13.875 C 36.074219 11.542969 34.34375 9.636719 32.101562 9.316406 C 31.9375 9.277344 31.769531 9.25 31.59375 9.25 Z M 31.59375 9.25 "/>
<path style="fill:none;stroke-width:1;stroke-linecap:butt;stroke-linejoin:miter;stroke:rgb(30.588236%,47.843137%,70.980394%);stroke-opacity:1;stroke-miterlimit:10;" d="M 35.498311 23.999155 L 35.498311 17.001689 " transform="matrix(0.925,0,0,0.925,0,0)"/>
<path style=" stroke:none;fill-rule:nonzero;fill:rgb(43.921569%,30.588236%,20.392157%);fill-opacity:1;" d="M 15.726562 24.976562 L 15.726562 31.449219 L 12.023438 31.449219 L 12.023438 24.976562 L 15.726562 24.976562 M 15.726562 24.050781 L 12.023438 24.050781 C 11.515625 24.050781 11.101562 24.464844 11.101562 24.976562 L 11.101562 31.449219 C 11.101562 31.960938 11.515625 32.375 12.023438 32.375 L 15.726562 32.375 C 16.234375 32.375 16.648438 31.960938 16.648438 31.449219 L 16.648438 24.976562 C 16.648438 24.464844 16.234375 24.050781 15.726562 24.050781 Z M 15.726562 24.050781 "/>
<path style=" stroke:none;fill-rule:nonzero;fill:rgb(100%,76.862746%,61.176473%);fill-opacity:1;" d="M 7.863281 35.613281 C 7.351562 35.613281 6.9375 35.195312 6.9375 34.6875 L 6.9375 27.289062 C 6.9375 26.777344 7.351562 26.363281 7.863281 26.363281 L 19.886719 26.363281 C 20.398438 26.363281 20.8125 26.777344 20.8125 27.289062 L 20.8125 34.6875 C 20.8125 35.195312 20.398438 35.613281 19.886719 35.613281 Z M 7.863281 35.613281 "/>
<path style=" stroke:none;fill-rule:nonzero;fill:rgb(63.137257%,41.568628%,29.019609%);fill-opacity:1;" d="M 19.886719 26.824219 C 20.144531 26.824219 20.351562 27.03125 20.351562 27.289062 L 20.351562 34.6875 C 20.351562 34.941406 20.144531 35.148438 19.886719 35.148438 L 7.863281 35.148438 C 7.605469 35.148438 7.398438 34.941406 7.398438 34.6875 L 7.398438 27.289062 C 7.398438 27.03125 7.605469 26.824219 7.863281 26.824219 L 19.886719 26.824219 M 19.886719 25.898438 L 7.863281 25.898438 C 7.097656 25.898438 6.476562 26.523438 6.476562 27.289062 L 6.476562 34.6875 C 6.476562 35.453125 7.097656 36.074219 7.863281 36.074219 L 19.886719 36.074219 C 20.652344 36.074219 21.273438 35.453125 21.273438 34.6875 L 21.273438 27.289062 C 21.273438 26.523438 20.652344 25.898438 19.886719 25.898438 Z M 19.886719 25.898438 "/>
</g>
</svg>
