<?xml version="1.0" encoding="UTF-8"?>
<svg xmlns="http://www.w3.org/2000/svg" xmlns:xlink="http://www.w3.org/1999/xlink" width="37.5pt" height="37.5pt" viewBox="0 0 37.5 37.5" version="1.1">
<g id="surface675">
<path style=" stroke:none;fill-rule:nonzero;fill:rgb(85.882354%,94.901961%,100%);fill-opacity:1;" d="M 3.238281 35.613281 L 3.238281 12.289062 L 18.5 3.3125 L 33.761719 12.289062 L 33.761719 35.613281 Z M 3.238281 35.613281 "/>
<path style=" stroke:none;fill-rule:nonzero;fill:rgb(45.490196%,58.823532%,76.862746%);fill-opacity:1;" d="M 18.5 3.847656 L 33.300781 12.554688 L 33.300781 35.148438 L 3.699219 35.148438 L 3.699219 12.554688 L 18.5 3.847656 M 18.5 2.773438 L 2.773438 12.023438 L 2.773438 36.074219 L 34.226562 36.074219 L 34.226562 12.023438 Z M 18.5 2.773438 "/>
<path style=" stroke:none;fill-rule:nonzero;fill:rgb(70.980394%,86.666667%,96.078432%);fill-opacity:1;" d="M 3.699219 31.449219 L 33.300781 31.449219 L 33.300781 35.148438 L 3.699219 35.148438 Z M 3.699219 31.449219 "/>
<path style=" stroke:none;fill-rule:nonzero;fill:rgb(96.862745%,56.078434%,56.078434%);fill-opacity:1;" d="M 18.5 4.296875 L 1.386719 14.757812 L 1.386719 11.929688 L 18.5 1.46875 L 35.613281 11.929688 L 35.613281 14.757812 Z M 18.5 4.296875 "/>
<path style=" stroke:none;fill-rule:nonzero;fill:rgb(78.039217%,26.274511%,26.274511%);fill-opacity:1;" d="M 18.5 2.007812 L 35.148438 12.1875 L 35.148438 13.933594 L 18.980469 4.050781 L 18.496094 3.753906 L 18.015625 4.050781 L 1.851562 13.933594 L 1.851562 12.1875 L 18.5 2.007812 M 18.5 0.925781 L 0.925781 11.667969 L 0.925781 15.582031 L 18.5 4.839844 L 36.074219 15.582031 L 36.074219 11.667969 Z M 18.5 0.925781 "/>
<path style=" stroke:none;fill-rule:nonzero;fill:rgb(100%,76.862746%,61.176473%);fill-opacity:1;" d="M 13.414062 19.886719 L 23.585938 19.886719 L 23.585938 35.613281 L 13.414062 35.613281 Z M 13.414062 19.886719 "/>
<path style=" stroke:none;fill-rule:nonzero;fill:rgb(63.137257%,41.568628%,29.019609%);fill-opacity:1;" d="M 23.125 20.351562 L 23.125 35.148438 L 13.875 35.148438 L 13.875 20.351562 L 23.125 20.351562 M 24.050781 19.425781 L 12.949219 19.425781 L 12.949219 36.074219 L 24.050781 36.074219 Z M 24.050781 19.425781 "/>
<path style=" stroke:none;fill-rule:nonzero;fill:rgb(63.137257%,41.568628%,29.019609%);fill-opacity:1;" d="M 21.273438 27.75 C 20.765625 27.75 20.351562 28.164062 20.351562 28.675781 C 20.351562 29.1875 20.765625 29.601562 21.273438 29.601562 C 21.785156 29.601562 22.199219 29.1875 22.199219 28.675781 C 22.199219 28.164062 21.785156 27.75 21.273438 27.75 Z M 21.273438 27.75 "/>
</g>
</svg>
