<?xml version="1.0" encoding="UTF-8"?>
<svg xmlns="http://www.w3.org/2000/svg" xmlns:xlink="http://www.w3.org/1999/xlink" width="375pt" height="375pt" viewBox="0 0 375 375" version="1.1">
<g id="surface627">
<path style=" stroke:none;fill-rule:nonzero;fill:rgb(100%,100%,100%);fill-opacity:1;" d="M 93.75 46.875 C 68.046875 46.875 46.875 68.046875 46.875 93.75 L 46.875 281.25 C 46.875 306.953125 68.046875 328.125 93.75 328.125 L 226.5625 328.125 C 248.25 328.125 267.554688 313.910156 272.949219 292.953125 C 275.097656 284.59375 270.0625 276.074219 261.703125 273.925781 C 253.34375 271.777344 244.824219 276.8125 242.675781 285.171875 C 241.132812 291.167969 234 296.875 226.5625 296.875 L 93.75 296.875 C 84.9375 296.875 78.125 290.0625 78.125 281.25 L 78.125 93.75 C 78.125 84.9375 84.9375 78.125 93.75 78.125 L 226.5625 78.125 C 234 78.125 241.132812 83.832031 242.675781 89.828125 C 244.824219 98.1875 253.34375 103.222656 261.703125 101.074219 C 270.0625 98.925781 275.097656 90.40625 272.949219 82.046875 C 267.554688 61.089844 248.25 46.875 226.5625 46.875 Z M 265.457031 124.847656 C 259.101562 124.855469 253.382812 128.710938 250.996094 134.601562 C 248.605469 140.492188 250.023438 147.238281 254.578125 151.671875 L 274.78125 171.875 L 132.8125 171.875 C 127.175781 171.796875 121.9375 174.757812 119.09375 179.621094 C 116.253906 184.488281 116.253906 190.511719 119.09375 195.378906 C 121.9375 200.242188 127.175781 203.203125 132.8125 203.125 L 274.78125 203.125 L 254.578125 223.328125 C 250.496094 227.246094 248.851562 233.066406 250.277344 238.542969 C 251.707031 244.015625 255.984375 248.292969 261.457031 249.722656 C 266.933594 251.148438 272.753906 249.503906 276.671875 245.421875 L 323.546875 198.546875 C 329.648438 192.445312 329.648438 182.554688 323.546875 176.453125 L 276.671875 129.578125 C 273.726562 126.550781 269.679688 124.84375 265.457031 124.847656 Z M 265.457031 124.847656 "/>
</g>
</svg>
