<?xml version="1.0" encoding="UTF-8"?>
<svg xmlns="http://www.w3.org/2000/svg" xmlns:xlink="http://www.w3.org/1999/xlink" width="375pt" height="375pt" viewBox="0 0 375 375" version="1.1">
<g id="surface924">
<path style=" stroke:none;fill-rule:nonzero;fill:rgb(100%,100%,100%);fill-opacity:1;" d="M 296.875 46.875 L 78.125 46.875 C 60.859375 46.875 46.875 60.859375 46.875 78.125 L 46.875 296.875 C 46.875 314.140625 60.859375 328.125 78.125 328.125 L 296.875 328.125 C 314.140625 328.125 328.125 314.140625 328.125 296.875 L 328.125 78.125 C 328.125 60.859375 314.140625 46.875 296.875 46.875 Z M 187.5 93.75 C 214.0625 93.75 234.375 114.0625 234.375 140.625 C 234.375 167.1875 214.0625 187.5 187.5 187.5 C 160.9375 187.5 140.625 167.1875 140.625 140.625 C 140.625 114.0625 160.9375 93.75 187.5 93.75 Z M 273.4375 281.25 L 101.5625 281.25 C 97.25 281.25 93.75 277.75 93.75 273.4375 L 93.75 265.625 C 93.75 241.078125 136.28125 218.75 187.5 218.75 C 238.71875 218.75 281.25 241.078125 281.25 265.625 L 281.25 273.4375 C 281.25 277.75 277.75 281.25 273.4375 281.25 Z M 273.4375 281.25 "/>
</g>
</svg>
