<?xml version="1.0" encoding="UTF-8"?>
<svg xmlns="http://www.w3.org/2000/svg" xmlns:xlink="http://www.w3.org/1999/xlink" width="37.5pt" height="37.5pt" viewBox="0 0 37.5 37.5" version="1.1">
<g id="surface23921">
<path style=" stroke:none;fill-rule:nonzero;fill:rgb(99.607843%,99.215686%,93.725491%);fill-opacity:1;" d="M 29.199219 10.933594 C 26.289062 8.023438 24.621094 6.355469 21.710938 3.445312 L 9.863281 3.445312 C 8.085938 3.445312 6.628906 4.898438 6.628906 6.675781 L 6.628906 29.441406 C 6.628906 31.21875 8.085938 32.671875 9.863281 32.671875 L 25.96875 32.671875 C 27.746094 32.671875 29.199219 31.21875 29.199219 29.441406 Z M 29.199219 10.933594 "/>
<path style=" stroke:none;fill-rule:nonzero;fill:rgb(99.607843%,96.470588%,66.666669%);fill-opacity:1;" d="M 21.617188 3.628906 L 21.617188 7.695312 C 21.617188 9.527344 23.117188 11.027344 24.949219 11.027344 L 29.386719 11.027344 "/>
<path style=" stroke:none;fill-rule:nonzero;fill:rgb(12.156863%,12.941177%,16.862746%);fill-opacity:1;" d="M 25.96875 33.042969 L 9.863281 33.042969 C 7.875 33.042969 6.261719 31.429688 6.261719 29.441406 L 6.261719 6.675781 C 6.261719 4.6875 7.875 3.074219 9.863281 3.074219 L 21.710938 3.074219 C 21.808594 3.074219 21.902344 3.113281 21.972656 3.183594 L 29.460938 10.675781 C 29.53125 10.742188 29.570312 10.835938 29.570312 10.9375 L 29.570312 29.441406 C 29.570312 31.429688 27.957031 33.042969 25.96875 33.042969 Z M 9.863281 3.8125 C 8.285156 3.8125 7 5.097656 7 6.675781 L 7 29.441406 C 7 31.019531 8.285156 32.304688 9.863281 32.304688 L 25.96875 32.304688 C 27.546875 32.304688 28.832031 31.019531 28.832031 29.441406 L 28.832031 11.089844 L 21.554688 3.8125 Z M 9.863281 3.8125 "/>
<path style=" stroke:none;fill-rule:nonzero;fill:rgb(12.156863%,12.941177%,16.862746%);fill-opacity:1;" d="M 29.386719 11.214844 L 24.953125 11.214844 C 23.011719 11.214844 21.429688 9.632812 21.429688 7.691406 L 21.429688 3.628906 C 21.429688 3.527344 21.511719 3.445312 21.617188 3.445312 C 21.71875 3.445312 21.800781 3.527344 21.800781 3.628906 L 21.800781 7.691406 C 21.800781 9.429688 23.214844 10.84375 24.953125 10.84375 L 29.386719 10.84375 C 29.488281 10.84375 29.570312 10.925781 29.570312 11.027344 C 29.570312 11.128906 29.488281 11.214844 29.386719 11.214844 Z M 27.164062 17.875 C 27.0625 17.875 26.980469 17.789062 26.980469 17.6875 L 26.980469 16.578125 C 26.980469 16.476562 27.0625 16.394531 27.164062 16.394531 C 27.269531 16.394531 27.351562 16.476562 27.351562 16.578125 L 27.351562 17.6875 C 27.351562 17.789062 27.269531 17.875 27.164062 17.875 Z M 27.164062 20.832031 C 27.0625 20.832031 26.980469 20.75 26.980469 20.648438 L 26.980469 18.429688 C 26.980469 18.328125 27.0625 18.242188 27.164062 18.242188 C 27.269531 18.242188 27.351562 18.328125 27.351562 18.429688 L 27.351562 20.648438 C 27.351562 20.75 27.269531 20.832031 27.164062 20.832031 Z M 24.515625 30.824219 L 11.3125 30.824219 C 9.75 30.824219 8.480469 29.546875 8.480469 27.980469 L 8.480469 8.492188 C 8.480469 7.582031 8.921875 6.722656 9.664062 6.183594 C 10.148438 5.835938 10.71875 5.648438 11.3125 5.648438 C 11.417969 5.648438 11.5 5.730469 11.5 5.832031 C 11.5 5.933594 11.417969 6.019531 11.3125 6.019531 C 10.796875 6.019531 10.300781 6.179688 9.878906 6.484375 C 9.234375 6.953125 8.851562 7.703125 8.851562 8.492188 L 8.851562 27.980469 C 8.851562 29.34375 9.957031 30.453125 11.3125 30.453125 L 24.515625 30.453125 C 25.875 30.453125 26.980469 29.34375 26.980469 27.980469 L 26.980469 21.386719 C 26.980469 21.285156 27.0625 21.203125 27.164062 21.203125 C 27.269531 21.203125 27.351562 21.285156 27.351562 21.386719 L 27.351562 27.980469 C 27.351562 29.546875 26.078125 30.824219 24.515625 30.824219 Z M 24.515625 30.824219 "/>
<path style=" stroke:none;fill-rule:nonzero;fill:rgb(12.156863%,12.941177%,16.862746%);fill-opacity:1;" d="M 15.171875 20.90625 C 15.125 20.90625 15.078125 20.886719 15.046875 20.855469 L 10.976562 17.15625 C 10.898438 17.089844 10.894531 16.972656 10.964844 16.894531 C 11.03125 16.820312 11.148438 16.816406 11.226562 16.882812 L 15.152344 20.457031 L 19.46875 15.417969 C 19.53125 15.34375 19.644531 15.332031 19.722656 15.394531 L 24.53125 19.09375 C 24.613281 19.15625 24.628906 19.273438 24.566406 19.351562 C 24.503906 19.433594 24.386719 19.449219 24.308594 19.386719 L 19.636719 15.792969 L 15.3125 20.839844 C 15.277344 20.878906 15.230469 20.902344 15.183594 20.90625 C 15.179688 20.90625 15.171875 20.90625 15.171875 20.90625 Z M 15.171875 20.90625 "/>
<path style=" stroke:none;fill-rule:nonzero;fill:rgb(97.647059%,90.196079%,36.078432%);fill-opacity:1;" d="M 11.101562 15.910156 C 10.488281 15.910156 9.988281 16.40625 9.988281 17.019531 C 9.988281 17.632812 10.488281 18.128906 11.101562 18.128906 C 11.714844 18.128906 12.210938 17.632812 12.210938 17.019531 C 12.210938 16.40625 11.714844 15.910156 11.101562 15.910156 Z M 15.171875 19.609375 C 14.558594 19.609375 14.058594 20.105469 14.058594 20.71875 C 14.058594 21.332031 14.558594 21.828125 15.171875 21.828125 C 15.78125 21.828125 16.28125 21.332031 16.28125 20.71875 C 16.28125 20.105469 15.78125 19.609375 15.171875 19.609375 Z M 19.609375 14.429688 C 18.996094 14.429688 18.5 14.925781 18.5 15.539062 C 18.5 16.152344 18.996094 16.648438 19.609375 16.648438 C 20.222656 16.648438 20.71875 16.152344 20.71875 15.539062 C 20.71875 14.925781 20.222656 14.429688 19.609375 14.429688 Z M 24.421875 18.128906 C 23.808594 18.128906 23.308594 18.625 23.308594 19.238281 C 23.308594 19.851562 23.808594 20.351562 24.421875 20.351562 C 25.03125 20.351562 25.53125 19.851562 25.53125 19.238281 C 25.53125 18.625 25.03125 18.128906 24.421875 18.128906 Z M 24.421875 18.128906 "/>
<path style=" stroke:none;fill-rule:nonzero;fill:rgb(12.156863%,12.941177%,16.862746%);fill-opacity:1;" d="M 15.171875 22.199219 C 14.355469 22.199219 13.691406 21.535156 13.691406 20.71875 C 13.691406 19.902344 14.355469 19.238281 15.171875 19.238281 C 15.984375 19.238281 16.648438 19.902344 16.648438 20.71875 C 16.648438 21.535156 15.984375 22.199219 15.171875 22.199219 Z M 15.171875 19.980469 C 14.761719 19.980469 14.429688 20.3125 14.429688 20.71875 C 14.429688 21.128906 14.761719 21.460938 15.171875 21.460938 C 15.578125 21.460938 15.910156 21.128906 15.910156 20.71875 C 15.910156 20.3125 15.578125 19.980469 15.171875 19.980469 Z M 24.421875 20.71875 C 23.605469 20.71875 22.941406 20.054688 22.941406 19.238281 C 22.941406 18.421875 23.605469 17.761719 24.421875 17.761719 C 25.234375 17.761719 25.898438 18.421875 25.898438 19.238281 C 25.898438 20.054688 25.234375 20.71875 24.421875 20.71875 Z M 24.421875 18.5 C 24.011719 18.5 23.679688 18.832031 23.679688 19.238281 C 23.679688 19.648438 24.011719 19.980469 24.421875 19.980469 C 24.828125 19.980469 25.160156 19.648438 25.160156 19.238281 C 25.160156 18.832031 24.828125 18.5 24.421875 18.5 Z M 11.101562 18.5 C 10.285156 18.5 9.621094 17.835938 9.621094 17.019531 C 9.621094 16.203125 10.285156 15.539062 11.101562 15.539062 C 11.917969 15.539062 12.578125 16.203125 12.578125 17.019531 C 12.578125 17.835938 11.917969 18.5 11.101562 18.5 Z M 11.101562 16.28125 C 10.691406 16.28125 10.359375 16.613281 10.359375 17.019531 C 10.359375 17.429688 10.691406 17.761719 11.101562 17.761719 C 11.507812 17.761719 11.839844 17.429688 11.839844 17.019531 C 11.839844 16.613281 11.507812 16.28125 11.101562 16.28125 Z M 19.609375 17.019531 C 18.792969 17.019531 18.128906 16.355469 18.128906 15.539062 C 18.128906 14.722656 18.792969 14.058594 19.609375 14.058594 C 20.425781 14.058594 21.089844 14.722656 21.089844 15.539062 C 21.089844 16.355469 20.425781 17.019531 19.609375 17.019531 Z M 19.609375 14.800781 C 19.203125 14.800781 18.871094 15.132812 18.871094 15.539062 C 18.871094 15.949219 19.203125 16.28125 19.609375 16.28125 C 20.019531 16.28125 20.351562 15.949219 20.351562 15.539062 C 20.351562 15.132812 20.019531 14.800781 19.609375 14.800781 Z M 19.609375 14.800781 "/>
</g>
</svg>
