<?xml version="1.0" encoding="UTF-8"?>
<svg xmlns="http://www.w3.org/2000/svg" xmlns:xlink="http://www.w3.org/1999/xlink" width="37.5pt" height="37.5pt" viewBox="0 0 37.5 37.5" version="1.1">
<g id="surface23170">
<path style=" stroke:none;fill-rule:nonzero;fill:rgb(80.784315%,84.705883%,92.941177%);fill-opacity:1;" d="M 2.894531 5.203125 L 34.113281 5.203125 L 34.113281 10.984375 L 2.894531 10.984375 Z M 2.894531 5.203125 "/>
<path style=" stroke:none;fill-rule:nonzero;fill:rgb(77.254903%,89.411765%,98.039216%);fill-opacity:1;" d="M 2.894531 10.984375 L 34.113281 10.984375 L 34.113281 31.796875 L 2.894531 31.796875 Z M 2.894531 10.984375 "/>
<path style=" stroke:none;fill-rule:nonzero;fill:rgb(89.019608%,94.901961%,100%);fill-opacity:1;" d="M 22.988281 31.796875 L 34.113281 20.671875 L 34.113281 11.03125 L 33.78125 11.03125 L 13.015625 31.796875 Z M 5.726562 31.796875 L 10.410156 31.796875 L 31.222656 11.03125 L 26.492188 11.03125 Z M 5.726562 31.796875 "/>
<path style=" stroke:none;fill-rule:nonzero;fill:rgb(92.941177%,47.058824%,60.000002%);fill-opacity:1;" d="M 22.550781 22.546875 L 26.019531 22.546875 L 26.019531 29.484375 L 22.550781 29.484375 Z M 22.550781 22.546875 "/>
<path style=" stroke:none;fill-rule:nonzero;fill:rgb(44.705883%,79.215688%,68.627453%);fill-opacity:1;" d="M 26.019531 19.078125 L 29.488281 19.078125 L 29.488281 29.484375 L 26.019531 29.484375 Z M 26.019531 19.078125 "/>
<path style=" stroke:none;fill-rule:nonzero;fill:rgb(100%,92.156863%,60.784316%);fill-opacity:1;" d="M 19.082031 26.015625 L 22.550781 26.015625 L 22.550781 29.484375 L 19.082031 29.484375 Z M 19.082031 26.015625 "/>
<path style=" stroke:none;fill-rule:nonzero;fill:rgb(55.29412%,42.352942%,62.352943%);fill-opacity:1;" d="M 30.640625 28.90625 L 30.0625 28.90625 L 30.0625 19.078125 C 30.0625 18.757812 29.804688 18.5 29.484375 18.5 L 26.015625 18.5 C 25.695312 18.5 25.4375 18.757812 25.4375 19.078125 L 25.4375 21.96875 L 22.546875 21.96875 C 22.226562 21.96875 21.96875 22.226562 21.96875 22.546875 L 21.96875 25.4375 L 19.078125 25.4375 C 18.757812 25.4375 18.5 25.695312 18.5 26.015625 L 18.5 28.90625 L 7.515625 28.90625 C 7.195312 28.90625 6.9375 29.164062 6.9375 29.484375 C 6.9375 29.804688 7.195312 30.0625 7.515625 30.0625 L 30.640625 30.0625 C 30.960938 30.0625 31.21875 29.804688 31.21875 29.484375 C 31.21875 29.164062 30.960938 28.90625 30.640625 28.90625 Z M 19.65625 26.59375 L 21.96875 26.59375 L 21.96875 28.90625 L 19.65625 28.90625 Z M 23.125 23.125 L 25.4375 23.125 L 25.4375 28.90625 L 23.125 28.90625 Z M 26.59375 28.90625 L 26.59375 19.65625 L 28.90625 19.65625 L 28.90625 28.90625 Z M 31.800781 10.40625 L 29.488281 10.40625 C 29.167969 10.40625 28.910156 10.664062 28.910156 10.984375 C 28.910156 11.304688 29.167969 11.5625 29.488281 11.5625 L 31.800781 11.5625 C 32.117188 11.5625 32.378906 11.304688 32.378906 10.984375 C 32.378906 10.664062 32.121094 10.40625 31.800781 10.40625 Z M 31.800781 10.40625 "/>
<path style=" stroke:none;fill-rule:nonzero;fill:rgb(55.29412%,42.352942%,62.352943%);fill-opacity:1;" d="M 32.953125 4.625 L 4.046875 4.625 C 3.089844 4.625 2.3125 5.402344 2.3125 6.359375 L 2.3125 30.640625 C 2.3125 31.597656 3.089844 32.375 4.046875 32.375 L 32.953125 32.375 C 33.910156 32.375 34.6875 31.597656 34.6875 30.640625 L 34.6875 6.359375 C 34.6875 5.402344 33.910156 4.625 32.953125 4.625 Z M 33.53125 30.640625 C 33.53125 30.960938 33.273438 31.21875 32.953125 31.21875 L 4.046875 31.21875 C 3.726562 31.21875 3.46875 30.960938 3.46875 30.640625 L 3.46875 11.5625 L 27.171875 11.5625 C 27.492188 11.5625 27.75 11.304688 27.75 10.984375 C 27.75 10.664062 27.492188 10.40625 27.171875 10.40625 L 3.46875 10.40625 L 3.46875 6.359375 C 3.46875 6.039062 3.726562 5.78125 4.046875 5.78125 L 32.953125 5.78125 C 33.273438 5.78125 33.53125 6.039062 33.53125 6.359375 Z M 33.53125 30.640625 "/>
<path style=" stroke:none;fill-rule:nonzero;fill:rgb(55.29412%,42.352942%,62.352943%);fill-opacity:1;" d="M 11.5625 6.9375 C 11.242188 6.9375 10.984375 7.195312 10.984375 7.515625 L 10.984375 8.671875 C 10.984375 8.992188 11.242188 9.25 11.5625 9.25 C 11.882812 9.25 12.140625 8.992188 12.140625 8.671875 L 12.140625 7.515625 C 12.140625 7.195312 11.882812 6.9375 11.5625 6.9375 Z M 8.671875 6.9375 C 8.351562 6.9375 8.09375 7.195312 8.09375 7.515625 L 8.09375 8.671875 C 8.09375 8.992188 8.351562 9.25 8.671875 9.25 C 8.992188 9.25 9.25 8.992188 9.25 8.671875 L 9.25 7.515625 C 9.25 7.195312 8.992188 6.9375 8.671875 6.9375 Z M 5.78125 6.9375 C 5.460938 6.9375 5.203125 7.195312 5.203125 7.515625 L 5.203125 8.671875 C 5.203125 8.992188 5.460938 9.25 5.78125 9.25 C 6.101562 9.25 6.359375 8.992188 6.359375 8.671875 L 6.359375 7.515625 C 6.359375 7.195312 6.101562 6.9375 5.78125 6.9375 Z M 20.234375 6.9375 C 19.914062 6.9375 19.65625 7.195312 19.65625 7.515625 L 19.65625 8.671875 C 19.65625 8.992188 19.914062 9.25 20.234375 9.25 C 20.554688 9.25 20.8125 8.992188 20.8125 8.671875 L 20.8125 7.515625 C 20.8125 7.195312 20.554688 6.9375 20.234375 6.9375 Z M 23.125 6.9375 C 22.804688 6.9375 22.546875 7.195312 22.546875 7.515625 L 22.546875 8.671875 C 22.546875 8.992188 22.804688 9.25 23.125 9.25 C 23.445312 9.25 23.703125 8.992188 23.703125 8.671875 L 23.703125 7.515625 C 23.703125 7.195312 23.445312 6.9375 23.125 6.9375 Z M 26.015625 6.9375 C 25.695312 6.9375 25.4375 7.195312 25.4375 7.515625 L 25.4375 8.671875 C 25.4375 8.992188 25.695312 9.25 26.015625 9.25 C 26.335938 9.25 26.59375 8.992188 26.59375 8.671875 L 26.59375 7.515625 C 26.59375 7.195312 26.335938 6.9375 26.015625 6.9375 Z M 28.90625 9.25 C 29.226562 9.25 29.484375 8.992188 29.484375 8.671875 L 29.484375 7.515625 C 29.484375 7.195312 29.226562 6.9375 28.90625 6.9375 C 28.585938 6.9375 28.328125 7.195312 28.328125 7.515625 L 28.328125 8.671875 C 28.328125 8.992188 28.585938 9.25 28.90625 9.25 Z M 31.796875 6.9375 C 31.476562 6.9375 31.21875 7.195312 31.21875 7.515625 L 31.21875 8.671875 C 31.21875 8.992188 31.476562 9.25 31.796875 9.25 C 32.117188 9.25 32.375 8.992188 32.375 8.671875 L 32.375 7.515625 C 32.375 7.195312 32.117188 6.9375 31.796875 6.9375 Z M 14.453125 6.9375 C 14.132812 6.9375 13.875 7.195312 13.875 7.515625 L 13.875 8.671875 C 13.875 8.992188 14.132812 9.25 14.453125 9.25 C 14.773438 9.25 15.03125 8.992188 15.03125 8.671875 L 15.03125 7.515625 C 15.03125 7.195312 14.773438 6.9375 14.453125 6.9375 Z M 17.34375 6.9375 C 17.023438 6.9375 16.765625 7.195312 16.765625 7.515625 L 16.765625 8.671875 C 16.765625 8.992188 17.023438 9.25 17.34375 9.25 C 17.664062 9.25 17.921875 8.992188 17.921875 8.671875 L 17.921875 7.515625 C 17.921875 7.195312 17.664062 6.9375 17.34375 6.9375 Z M 17.34375 6.9375 "/>
<path style=" stroke:none;fill-rule:nonzero;fill:rgb(97.647059%,86.666667%,56.078434%);fill-opacity:1;" d="M 11.566406 13.296875 C 8.054688 13.296875 5.207031 16.144531 5.207031 19.65625 C 5.207031 23.167969 8.054688 26.015625 11.566406 26.015625 C 15.078125 26.015625 17.925781 23.167969 17.925781 19.65625 C 17.925781 16.144531 15.078125 13.296875 11.566406 13.296875 Z M 11.566406 13.296875 "/>
<path style=" stroke:none;fill-rule:nonzero;fill:rgb(55.29412%,42.352942%,62.352943%);fill-opacity:1;" d="M 11.566406 12.71875 C 7.734375 12.71875 4.628906 15.824219 4.628906 19.65625 C 4.628906 23.488281 7.734375 26.59375 11.566406 26.59375 C 15.398438 26.59375 18.503906 23.488281 18.503906 19.65625 C 18.503906 15.824219 15.398438 12.71875 11.566406 12.71875 Z M 11.566406 25.441406 C 8.375 25.441406 5.777344 22.847656 5.777344 19.65625 C 5.777344 16.464844 8.375 13.871094 11.566406 13.871094 C 14.757812 13.871094 17.351562 16.464844 17.351562 19.65625 C 17.351562 22.847656 14.757812 25.441406 11.566406 25.441406 Z M 11.566406 25.441406 "/>
<path style=" stroke:none;fill-rule:nonzero;fill:rgb(55.29412%,42.352942%,62.352943%);fill-opacity:1;" d="M 10.988281 15.03125 L 10.988281 15.609375 C 9.710938 15.609375 8.675781 16.644531 8.675781 17.921875 C 8.675781 19.199219 9.710938 20.234375 10.988281 20.234375 L 12.144531 20.234375 C 12.78125 20.234375 13.300781 20.75 13.300781 21.390625 C 13.300781 22.03125 12.78125 22.546875 12.144531 22.546875 L 12.144531 21.390625 C 12.144531 21.070312 11.882812 20.8125 11.566406 20.8125 C 11.246094 20.8125 10.988281 21.070312 10.988281 21.390625 L 10.988281 22.546875 C 10.347656 22.546875 9.832031 22.03125 9.832031 21.390625 C 9.832031 21.070312 9.570312 20.8125 9.253906 20.8125 C 8.933594 20.8125 8.675781 21.070312 8.675781 21.390625 C 8.675781 22.667969 9.710938 23.703125 10.988281 23.703125 L 10.988281 24.28125 C 10.988281 24.601562 11.246094 24.859375 11.566406 24.859375 C 11.882812 24.859375 12.144531 24.601562 12.144531 24.28125 L 12.144531 23.703125 C 13.421875 23.703125 14.457031 22.667969 14.457031 21.390625 C 14.457031 20.113281 13.421875 19.078125 12.144531 19.078125 L 12.144531 17.921875 C 12.144531 17.601562 11.882812 17.34375 11.566406 17.34375 C 11.246094 17.34375 10.988281 17.601562 10.988281 17.921875 L 10.988281 19.078125 C 10.347656 19.078125 9.832031 18.5625 9.832031 17.921875 C 9.832031 17.28125 10.347656 16.765625 10.988281 16.765625 L 12.144531 16.765625 C 12.78125 16.765625 13.300781 17.28125 13.300781 17.921875 C 13.300781 18.242188 13.558594 18.5 13.878906 18.5 C 14.195312 18.5 14.457031 18.242188 14.457031 17.921875 C 14.457031 16.644531 13.421875 15.609375 12.144531 15.609375 L 12.144531 15.03125 C 12.144531 14.710938 11.882812 14.453125 11.566406 14.453125 C 11.246094 14.453125 10.988281 14.710938 10.988281 15.03125 Z M 28.910156 17.34375 C 28.589844 17.34375 28.332031 17.085938 28.332031 16.765625 L 28.332031 13.875 L 25.441406 13.875 C 25.121094 13.875 24.863281 13.617188 24.863281 13.296875 C 24.863281 12.976562 25.121094 12.71875 25.441406 12.71875 L 28.910156 12.71875 C 29.226562 12.71875 29.488281 12.976562 29.488281 13.296875 L 29.488281 16.765625 C 29.488281 17.085938 29.230469 17.34375 28.910156 17.34375 Z M 28.910156 17.34375 "/>
<path style=" stroke:none;fill-rule:nonzero;fill:rgb(55.29412%,42.352942%,62.352943%);fill-opacity:1;" d="M 23.128906 19.65625 C 22.980469 19.65625 22.832031 19.597656 22.71875 19.488281 C 22.492188 19.261719 22.492188 18.894531 22.71875 18.667969 L 28.5 12.886719 C 28.726562 12.660156 29.09375 12.660156 29.316406 12.886719 C 29.542969 13.113281 29.542969 13.480469 29.316406 13.707031 L 23.535156 19.488281 C 23.425781 19.597656 23.277344 19.65625 23.128906 19.65625 Z M 23.128906 19.65625 "/>
<path style=" stroke:none;fill-rule:nonzero;fill:rgb(55.29412%,42.352942%,62.352943%);fill-opacity:1;" d="M 20.035156 22.75 C 19.886719 22.75 19.738281 22.691406 19.625 22.578125 C 19.402344 22.351562 19.402344 21.988281 19.625 21.761719 L 20.878906 20.507812 C 21.105469 20.285156 21.46875 20.285156 21.695312 20.507812 C 21.921875 20.734375 21.921875 21.101562 21.695312 21.328125 L 20.445312 22.578125 C 20.332031 22.691406 20.183594 22.75 20.035156 22.75 Z M 20.035156 22.75 "/>
</g>
</svg>
