<?xml version="1.0" encoding="UTF-8"?>
<svg xmlns="http://www.w3.org/2000/svg" xmlns:xlink="http://www.w3.org/1999/xlink" width="37.5pt" height="37.5pt" viewBox="0 0 37.5 37.5" version="1.1">
<g id="surface22584">
<path style=" stroke:none;fill-rule:nonzero;fill:rgb(93.725491%,84.705883%,74.509805%);fill-opacity:1;" d="M 1.15625 8.671875 L 30.0625 8.671875 C 30.382812 8.671875 30.640625 8.929688 30.640625 9.25 L 30.640625 32.375 C 30.640625 32.695312 30.382812 32.953125 30.0625 32.953125 L 1.15625 32.953125 C 0.835938 32.953125 0.578125 32.695312 0.578125 32.375 L 0.578125 9.25 C 0.578125 8.929688 0.835938 8.671875 1.15625 8.671875 Z M 1.15625 8.671875 "/>
<path style=" stroke:none;fill-rule:nonzero;fill:rgb(80.392158%,63.137257%,65.490198%);fill-opacity:1;" d="M 2.890625 30.0625 L 28.328125 30.0625 C 29.605469 30.0625 30.640625 31.097656 30.640625 32.375 L 30.640625 32.953125 L 0.578125 32.953125 L 0.578125 32.375 C 0.578125 31.097656 1.613281 30.0625 2.890625 30.0625 Z M 2.890625 30.0625 "/>
<path style=" stroke:none;fill-rule:nonzero;fill:rgb(44.705883%,79.215688%,68.627453%);fill-opacity:1;" d="M 35.167969 30.871094 C 35.109375 30.941406 35.085938 31.035156 35.105469 31.125 L 35.4375 32.699219 C 35.46875 32.84375 35.382812 32.988281 35.242188 33.035156 L 33.714844 33.53125 C 33.628906 33.5625 33.5625 33.628906 33.53125 33.714844 L 33.035156 35.265625 C 32.988281 35.40625 32.84375 35.492188 32.699219 35.460938 L 31.125 35.125 C 31.035156 35.105469 30.941406 35.128906 30.871094 35.191406 L 29.679688 36.25 C 29.570312 36.347656 29.402344 36.347656 29.292969 36.25 L 28.578125 35.59375 L 28.101562 35.167969 C 28.03125 35.109375 27.9375 35.085938 27.847656 35.105469 L 26.460938 35.398438 L 26.277344 35.4375 C 26.128906 35.46875 25.984375 35.382812 25.941406 35.242188 L 25.4375 33.714844 C 25.40625 33.628906 25.339844 33.5625 25.253906 33.53125 L 24.953125 33.433594 L 23.703125 33.035156 C 23.5625 32.988281 23.476562 32.84375 23.507812 32.699219 L 23.546875 32.503906 L 23.84375 31.125 C 23.863281 31.035156 23.839844 30.941406 23.777344 30.871094 L 23.125 30.0625 L 22.753906 29.652344 C 22.65625 29.542969 22.65625 29.375 22.753906 29.265625 L 23.835938 28.074219 C 23.894531 28.003906 23.917969 27.910156 23.898438 27.820312 L 23.5625 26.246094 C 23.535156 26.101562 23.617188 25.957031 23.761719 25.910156 L 25.257812 25.4375 C 25.34375 25.40625 25.414062 25.339844 25.441406 25.253906 L 25.941406 23.703125 C 25.984375 23.5625 26.128906 23.476562 26.277344 23.507812 L 27.847656 23.84375 C 27.9375 23.863281 28.03125 23.839844 28.101562 23.777344 L 29.292969 22.695312 C 29.402344 22.597656 29.570312 22.597656 29.679688 22.695312 L 30.0625 23.125 L 30.84375 23.835938 C 30.914062 23.894531 31.007812 23.917969 31.097656 23.898438 L 32.472656 23.605469 L 32.667969 23.5625 C 32.816406 23.535156 32.960938 23.617188 33.003906 23.761719 L 33.402344 24.988281 L 33.503906 25.289062 C 33.53125 25.375 33.601562 25.441406 33.6875 25.472656 L 35.214844 25.96875 C 35.355469 26.015625 35.441406 26.160156 35.410156 26.304688 L 35.371094 26.488281 L 35.074219 27.878906 C 35.054688 27.96875 35.078125 28.0625 35.136719 28.132812 L 35.566406 28.605469 L 36.21875 29.324219 C 36.320312 29.433594 36.320312 29.601562 36.21875 29.710938 Z M 35.167969 30.871094 "/>
<path style=" stroke:none;fill-rule:nonzero;fill:rgb(98.039216%,93.725491%,87.058824%);fill-opacity:1;" d="M 30.640625 8.671875 L 1.15625 8.671875 L 5.78125 5.203125 L 26.59375 5.203125 Z M 30.640625 8.671875 "/>
<path style=" stroke:none;fill-rule:nonzero;fill:rgb(55.29412%,42.352942%,62.352943%);fill-opacity:1;" d="M 5.78125 28.941406 C 5.460938 28.941406 5.203125 29.199219 5.203125 29.519531 L 5.203125 30.675781 C 5.203125 30.996094 5.460938 31.253906 5.78125 31.253906 C 6.101562 31.253906 6.359375 30.996094 6.359375 30.675781 L 6.359375 29.519531 C 6.359375 29.199219 6.101562 28.941406 5.78125 28.941406 Z M 2.890625 28.941406 C 2.570312 28.941406 2.3125 29.199219 2.3125 29.519531 L 2.3125 30.675781 C 2.3125 30.996094 2.570312 31.253906 2.890625 31.253906 C 3.210938 31.253906 3.46875 30.996094 3.46875 30.675781 L 3.46875 29.519531 C 3.46875 29.199219 3.210938 28.941406 2.890625 28.941406 Z M 8.671875 28.941406 C 8.351562 28.941406 8.09375 29.199219 8.09375 29.519531 L 8.09375 30.675781 C 8.09375 30.996094 8.351562 31.253906 8.671875 31.253906 C 8.992188 31.253906 9.25 30.996094 9.25 30.675781 L 9.25 29.519531 C 9.25 29.199219 8.992188 28.941406 8.671875 28.941406 Z M 11.5625 28.941406 C 11.242188 28.941406 10.984375 29.199219 10.984375 29.519531 L 10.984375 30.675781 C 10.984375 30.996094 11.242188 31.253906 11.5625 31.253906 C 11.882812 31.253906 12.140625 30.996094 12.140625 30.675781 L 12.140625 29.519531 C 12.140625 29.199219 11.882812 28.941406 11.5625 28.941406 Z M 14.453125 28.941406 C 14.132812 28.941406 13.875 29.199219 13.875 29.519531 L 13.875 30.675781 C 13.875 30.996094 14.132812 31.253906 14.453125 31.253906 C 14.773438 31.253906 15.03125 30.996094 15.03125 30.675781 L 15.03125 29.519531 C 15.03125 29.199219 14.773438 28.941406 14.453125 28.941406 Z M 17.34375 28.941406 C 17.023438 28.941406 16.765625 29.199219 16.765625 29.519531 L 16.765625 30.675781 C 16.765625 30.996094 17.023438 31.253906 17.34375 31.253906 C 17.664062 31.253906 17.921875 30.996094 17.921875 30.675781 L 17.921875 29.519531 C 17.921875 29.199219 17.664062 28.941406 17.34375 28.941406 Z M 20.234375 28.941406 C 19.914062 28.941406 19.65625 29.199219 19.65625 29.519531 L 19.65625 30.675781 C 19.65625 30.996094 19.914062 31.253906 20.234375 31.253906 C 20.554688 31.253906 20.8125 30.996094 20.8125 30.675781 L 20.8125 29.519531 C 20.8125 29.199219 20.554688 28.941406 20.234375 28.941406 Z M 24.859375 9.25 L 27.171875 9.25 C 27.492188 9.25 27.75 8.992188 27.75 8.671875 C 27.75 8.351562 27.492188 8.09375 27.171875 8.09375 L 24.859375 8.09375 C 24.539062 8.09375 24.28125 8.351562 24.28125 8.671875 C 24.28125 8.992188 24.539062 9.25 24.859375 9.25 Z M 21.390625 23.125 L 9.828125 23.125 C 9.507812 23.125 9.25 23.382812 9.25 23.703125 C 9.25 24.023438 9.507812 24.28125 9.828125 24.28125 L 21.390625 24.28125 C 21.710938 24.28125 21.96875 24.023438 21.96875 23.703125 C 21.96875 23.382812 21.710938 23.125 21.390625 23.125 Z M 13.296875 12.71875 L 17.921875 12.71875 C 18.242188 12.71875 18.5 12.460938 18.5 12.140625 C 18.5 11.820312 18.242188 11.5625 17.921875 11.5625 L 13.296875 11.5625 C 12.976562 11.5625 12.71875 11.820312 12.71875 12.140625 C 12.71875 12.460938 12.976562 12.71875 13.296875 12.71875 Z M 10.816406 17.753906 L 11.5625 17.003906 L 11.5625 21.390625 C 11.5625 21.710938 11.820312 21.96875 12.140625 21.96875 C 12.460938 21.96875 12.71875 21.710938 12.71875 21.390625 L 12.71875 17.003906 L 13.464844 17.75 C 13.695312 17.945312 14.035156 17.933594 14.25 17.71875 C 14.464844 17.503906 14.476562 17.164062 14.28125 16.933594 L 12.546875 15.199219 C 12.320312 14.976562 11.957031 14.976562 11.730469 15.199219 L 9.996094 16.933594 C 9.800781 17.164062 9.8125 17.503906 10.027344 17.71875 C 10.238281 17.933594 10.582031 17.945312 10.8125 17.75 Z M 16.933594 17.753906 C 17.160156 17.976562 17.523438 17.976562 17.75 17.753906 L 18.5 17.003906 L 18.5 21.390625 C 18.5 21.710938 18.757812 21.96875 19.078125 21.96875 C 19.398438 21.96875 19.65625 21.710938 19.65625 21.390625 L 19.65625 17.003906 L 20.402344 17.75 C 20.632812 17.945312 20.972656 17.933594 21.1875 17.71875 C 21.402344 17.503906 21.414062 17.164062 21.21875 16.933594 L 19.484375 15.199219 C 19.257812 14.976562 18.894531 14.976562 18.667969 15.199219 L 16.933594 16.933594 C 16.824219 17.042969 16.761719 17.191406 16.761719 17.34375 C 16.761719 17.496094 16.824219 17.644531 16.933594 17.753906 Z M 16.933594 17.753906 "/>
<path style=" stroke:none;fill-rule:nonzero;fill:rgb(55.29412%,42.352942%,62.352943%);fill-opacity:1;" d="M 36.675781 28.90625 L 35.699219 27.824219 L 36.003906 26.398438 C 36.097656 25.964844 35.847656 25.527344 35.425781 25.390625 L 34.039062 24.941406 L 33.589844 23.554688 C 33.453125 23.128906 33.015625 22.878906 32.582031 22.976562 L 31.222656 23.265625 L 31.222656 9.828125 C 31.222656 8.917969 30.796875 8.0625 30.066406 7.515625 L 26.980469 5.203125 C 26.480469 4.832031 25.871094 4.628906 25.246094 4.625 L 5.972656 4.625 C 5.347656 4.628906 4.738281 4.832031 4.238281 5.203125 L 1.15625 7.515625 C 0.429688 8.0625 0 8.917969 0 9.828125 L 0 31.796875 C 0 32.753906 0.777344 33.53125 1.734375 33.53125 L 23.417969 33.53125 L 23.554688 33.582031 L 24.941406 34.035156 L 25.390625 35.421875 C 25.527344 35.84375 25.964844 36.09375 26.398438 36 L 27.824219 35.695312 L 28.90625 36.675781 C 29.066406 36.820312 29.269531 36.898438 29.484375 36.902344 C 29.699219 36.902344 29.90625 36.820312 30.0625 36.675781 L 31.144531 35.699219 L 32.570312 36.003906 C 33.003906 36.097656 33.441406 35.847656 33.578125 35.425781 L 34.027344 34.039062 L 35.414062 33.589844 C 35.839844 33.453125 36.089844 33.015625 35.992188 32.582031 L 35.6875 31.15625 L 36.675781 30.0625 C 36.972656 29.734375 36.972656 29.234375 36.675781 28.90625 Z M 4.929688 6.128906 C 5.230469 5.902344 5.597656 5.78125 5.972656 5.78125 L 15.03125 5.78125 L 15.03125 8.09375 L 2.3125 8.09375 Z M 1.15625 31.796875 L 1.15625 9.25 L 22.546875 9.25 C 22.867188 9.25 23.125 8.992188 23.125 8.671875 C 23.125 8.351562 22.867188 8.09375 22.546875 8.09375 L 16.1875 8.09375 L 16.1875 5.78125 L 25.246094 5.78125 C 25.621094 5.78125 25.988281 5.902344 26.289062 6.128906 L 29.367188 8.441406 C 29.804688 8.769531 30.0625 9.28125 30.0625 9.828125 L 30.0625 22.292969 C 29.734375 21.996094 29.234375 21.996094 28.90625 22.292969 L 27.824219 23.269531 L 26.398438 22.964844 C 25.964844 22.867188 25.527344 23.117188 25.390625 23.542969 L 24.941406 24.929688 L 23.554688 25.378906 C 23.132812 25.519531 22.882812 25.953125 22.976562 26.386719 L 23.28125 27.8125 L 22.296875 28.90625 C 22 29.234375 22 29.734375 22.296875 30.0625 L 23.273438 31.144531 L 23.015625 32.375 L 1.734375 32.375 C 1.414062 32.375 1.15625 32.117188 1.15625 31.796875 Z M 34.738281 30.484375 C 34.5625 30.683594 34.488281 30.957031 34.539062 31.21875 L 34.820312 32.535156 L 33.53125 32.953125 C 33.253906 33.039062 33.039062 33.253906 32.953125 33.53125 L 32.542969 34.816406 L 31.21875 34.539062 C 30.945312 34.480469 30.664062 34.554688 30.457031 34.738281 L 29.484375 35.640625 L 28.488281 34.738281 C 28.332031 34.597656 28.125 34.519531 27.910156 34.519531 C 27.851562 34.515625 27.792969 34.515625 27.734375 34.519531 L 26.414062 34.804688 L 26.015625 33.53125 C 25.925781 33.257812 25.710938 33.042969 25.4375 32.953125 L 24.152344 32.542969 L 24.195312 32.351562 L 24.4375 31.230469 C 24.496094 30.957031 24.421875 30.671875 24.234375 30.460938 L 23.332031 29.484375 L 24.234375 28.488281 C 24.414062 28.289062 24.488281 28.015625 24.4375 27.75 L 24.152344 26.433594 L 25.4375 26.015625 C 25.714844 25.933594 25.933594 25.714844 26.015625 25.4375 L 26.433594 24.152344 L 27.746094 24.4375 C 28.019531 24.496094 28.304688 24.421875 28.511719 24.234375 L 29.484375 23.332031 L 30.0625 23.851562 L 30.484375 24.234375 C 30.683594 24.414062 30.957031 24.488281 31.21875 24.4375 L 32.535156 24.152344 L 32.953125 25.4375 C 33.035156 25.714844 33.253906 25.933594 33.53125 26.015625 L 34.816406 26.433594 L 34.539062 27.75 C 34.480469 28.023438 34.554688 28.304688 34.738281 28.511719 L 35.640625 29.484375 Z M 34.738281 30.484375 "/>
</g>
</svg>
