<?xml version="1.0" encoding="UTF-8"?>
<svg xmlns="http://www.w3.org/2000/svg" xmlns:xlink="http://www.w3.org/1999/xlink" width="37.5pt" height="37.5pt" viewBox="0 0 37.5 37.5" version="1.1">
<g id="surface1006">
<path style=" stroke:none;fill-rule:nonzero;fill:rgb(98.039216%,93.725491%,87.058824%);fill-opacity:1;" d="M 27.171875 27.171875 C 26.59375 30.640625 22.546875 31.796875 22.546875 31.796875 L 15.609375 31.796875 L 14.453125 31.21875 L 12.140625 29.484375 L 8.671875 23.703125 L 8.671875 17.921875 L 9.828125 17.921875 L 11.5625 18.5 L 12.71875 20.8125 L 13.296875 8.671875 L 13.875 6.9375 L 15.03125 6.9375 L 16.765625 8.09375 L 17.34375 5.203125 L 19.078125 5.203125 L 19.65625 8.09375 L 21.390625 6.9375 L 22.546875 7.515625 L 23.703125 10.40625 L 25.4375 9.25 L 26.59375 10.984375 C 26.59375 10.984375 27.101562 16.605469 27.277344 21.390625 C 27.363281 23.808594 27.367188 26.011719 27.171875 27.171875 Z M 27.171875 27.171875 "/>
<path style=" stroke:none;fill-rule:nonzero;fill:rgb(67.450982%,89.019608%,100%);fill-opacity:1;" d="M 27.171875 27.171875 C 26.59375 30.640625 22.546875 31.796875 22.546875 31.796875 L 15.609375 31.796875 L 14.453125 31.21875 L 12.140625 29.484375 L 8.671875 23.703125 L 8.671875 21.390625 L 27.277344 21.390625 C 27.363281 23.808594 27.367188 26.011719 27.171875 27.171875 Z M 27.171875 27.171875 "/>
<path style=" stroke:none;fill-rule:nonzero;fill:rgb(55.29412%,42.352942%,62.352943%);fill-opacity:1;" d="M 2.890625 6.9375 C 3.210938 6.9375 3.46875 6.679688 3.46875 6.359375 L 3.46875 3.46875 L 6.359375 3.46875 C 6.679688 3.46875 6.9375 3.210938 6.9375 2.890625 C 6.9375 2.570312 6.679688 2.3125 6.359375 2.3125 L 2.890625 2.3125 C 2.570312 2.3125 2.3125 2.570312 2.3125 2.890625 L 2.3125 6.359375 C 2.3125 6.679688 2.570312 6.9375 2.890625 6.9375 Z M 30.640625 3.46875 L 33.53125 3.46875 L 33.53125 6.359375 C 33.53125 6.679688 33.789062 6.9375 34.109375 6.9375 C 34.429688 6.9375 34.6875 6.679688 34.6875 6.359375 L 34.6875 2.890625 C 34.6875 2.570312 34.429688 2.3125 34.109375 2.3125 L 30.640625 2.3125 C 30.320312 2.3125 30.0625 2.570312 30.0625 2.890625 C 30.0625 3.210938 30.320312 3.46875 30.640625 3.46875 Z M 6.359375 33.53125 L 3.46875 33.53125 L 3.46875 30.640625 C 3.46875 30.320312 3.210938 30.0625 2.890625 30.0625 C 2.570312 30.0625 2.3125 30.320312 2.3125 30.640625 L 2.3125 34.109375 C 2.3125 34.429688 2.570312 34.6875 2.890625 34.6875 L 6.359375 34.6875 C 6.679688 34.6875 6.9375 34.429688 6.9375 34.109375 C 6.9375 33.789062 6.679688 33.53125 6.359375 33.53125 Z M 34.109375 30.0625 C 33.789062 30.0625 33.53125 30.320312 33.53125 30.640625 L 33.53125 33.53125 L 30.640625 33.53125 C 30.320312 33.53125 30.0625 33.789062 30.0625 34.109375 C 30.0625 34.429688 30.320312 34.6875 30.640625 34.6875 L 34.109375 34.6875 C 34.429688 34.6875 34.6875 34.429688 34.6875 34.109375 L 34.6875 30.640625 C 34.6875 30.320312 34.429688 30.0625 34.109375 30.0625 Z M 36.421875 20.8125 L 27.574219 20.8125 L 27.167969 11.117188 C 27.109375 9.964844 26.15625 9.0625 25 9.0625 C 24.476562 9.0625 23.996094 9.25 23.621094 9.558594 L 23.589844 8.453125 C 23.554688 7.28125 22.609375 6.363281 21.4375 6.363281 C 20.910156 6.363281 20.425781 6.554688 20.054688 6.871094 L 20.039062 6.5 C 20.007812 5.441406 19.152344 4.613281 18.089844 4.613281 C 17.03125 4.613281 16.175781 5.441406 16.144531 6.5 L 16.132812 6.878906 C 15.757812 6.566406 15.277344 6.375 14.75 6.375 C 13.574219 6.375 12.632812 7.296875 12.601562 8.46875 L 12.316406 19.308594 L 12.269531 19.195312 C 11.84375 18.152344 10.980469 17.375 9.894531 17.066406 C 9.425781 16.929688 8.9375 17.019531 8.558594 17.304688 C 8.183594 17.585938 7.96875 18.023438 7.96875 18.503906 L 7.96875 20.8125 L 0.578125 20.8125 C 0.257812 20.8125 0 21.070312 0 21.390625 C 0 21.710938 0.257812 21.96875 0.578125 21.96875 L 12.535156 21.96875 C 12.539062 21.96875 12.539062 21.96875 12.539062 21.96875 L 36.421875 21.96875 C 36.742188 21.96875 37 21.710938 37 21.390625 C 37 21.070312 36.742188 20.8125 36.421875 20.8125 Z M 14.753906 7.53125 C 15.296875 7.53125 15.742188 7.976562 15.742188 8.523438 L 15.742188 17.617188 C 15.742188 17.9375 16.046875 18.195312 16.363281 18.195312 C 16.675781 18.195312 16.933594 17.949219 16.941406 17.636719 L 17.300781 6.535156 C 17.3125 6.105469 17.660156 5.769531 18.09375 5.769531 C 18.523438 5.769531 18.871094 6.105469 18.886719 6.539062 L 19.242188 17.636719 C 19.253906 17.949219 19.554688 18.195312 19.867188 18.195312 C 20.183594 18.195312 20.445312 17.9375 20.445312 17.617188 L 20.445312 8.515625 C 20.445312 7.964844 20.890625 7.519531 21.4375 7.519531 C 21.980469 7.519531 22.417969 7.945312 22.433594 8.488281 L 22.699219 17.632812 C 22.710938 17.945312 22.964844 18.195312 23.277344 18.195312 L 23.410156 18.195312 C 23.730469 18.195312 23.988281 17.9375 23.988281 17.617188 L 23.988281 11.230469 C 23.988281 10.671875 24.441406 10.21875 25.003906 10.21875 C 25.542969 10.21875 25.984375 10.640625 26.015625 11.171875 L 26.417969 20.8125 L 13.433594 20.8125 L 13.761719 8.5 C 13.773438 7.957031 14.207031 7.53125 14.753906 7.53125 Z M 9.125 18.503906 C 9.125 18.355469 9.195312 18.273438 9.253906 18.230469 C 9.339844 18.164062 9.460938 18.144531 9.578125 18.179688 C 10.320312 18.390625 10.910156 18.917969 11.199219 19.632812 L 11.679688 20.8125 L 9.125 20.8125 Z M 19.078125 26.015625 L 19.078125 24.859375 C 19.078125 24.539062 18.820312 24.28125 18.5 24.28125 C 18.179688 24.28125 17.921875 24.539062 17.921875 24.859375 L 17.921875 26.015625 C 17.921875 26.335938 18.179688 26.59375 18.5 26.59375 C 18.820312 26.59375 19.078125 26.335938 19.078125 26.015625 Z M 21.96875 26.015625 L 21.96875 24.859375 C 21.96875 24.539062 21.710938 24.28125 21.390625 24.28125 C 21.070312 24.28125 20.8125 24.539062 20.8125 24.859375 L 20.8125 26.015625 C 20.8125 26.335938 21.070312 26.59375 21.390625 26.59375 C 21.710938 26.59375 21.96875 26.335938 21.96875 26.015625 Z M 24.859375 26.015625 L 24.859375 24.859375 C 24.859375 24.539062 24.601562 24.28125 24.28125 24.28125 C 23.960938 24.28125 23.703125 24.539062 23.703125 24.859375 L 23.703125 26.015625 C 23.703125 26.335938 23.960938 26.59375 24.28125 26.59375 C 24.601562 26.59375 24.859375 26.335938 24.859375 26.015625 Z M 24.859375 26.015625 "/>
<path style=" stroke:none;fill-rule:nonzero;fill:rgb(55.29412%,42.352942%,62.352943%);fill-opacity:1;" d="M 27.6875 23.476562 C 27.675781 23.15625 27.402344 22.914062 27.085938 22.921875 C 26.765625 22.9375 26.519531 23.207031 26.53125 23.523438 L 26.582031 24.738281 C 26.636719 25.761719 26.65625 26.929688 26.398438 27.773438 L 26.234375 28.199219 C 25.519531 30.03125 23.785156 31.21875 21.816406 31.21875 L 16.5625 31.21875 C 15.09375 31.21875 13.683594 30.519531 12.792969 29.351562 L 10.890625 26.859375 C 9.941406 25.671875 9.421875 24.605469 9.199219 23.398438 C 9.140625 23.082031 8.847656 22.875 8.527344 22.933594 C 8.210938 22.988281 8.003906 23.292969 8.0625 23.605469 C 8.320312 25.011719 8.914062 26.238281 9.980469 27.570312 L 11.875 30.054688 C 12.984375 31.507812 14.734375 32.375 16.5625 32.375 L 21.816406 32.375 C 24.265625 32.375 26.421875 30.898438 27.308594 28.617188 L 27.488281 28.152344 C 27.8125 27.101562 27.800781 25.859375 27.738281 24.683594 Z M 27.6875 23.476562 "/>
<path style=" stroke:none;fill-rule:nonzero;fill:rgb(55.29412%,42.352942%,62.352943%);fill-opacity:1;" d="M 16.171875 25.992188 C 16.222656 26.007812 16.277344 26.015625 16.328125 26.015625 C 16.578125 26.015625 16.8125 25.847656 16.882812 25.59375 C 16.96875 25.285156 16.792969 24.964844 16.484375 24.878906 C 15.511719 24.605469 14.582031 23.964844 13.996094 23.160156 C 13.808594 22.902344 13.445312 22.847656 13.1875 23.035156 C 12.929688 23.222656 12.875 23.585938 13.0625 23.84375 C 13.796875 24.847656 14.960938 25.652344 16.171875 25.992188 Z M 16.171875 25.992188 "/>
</g>
</svg>
